<svg class="animated" id="freepik_stories-national-foundation-day" xmlns="http://www.w3.org/2000/svg" viewBox="0 0 500 500" version="1.1" xmlns:xlink="http://www.w3.org/1999/xlink" xmlns:svgjs="http://svgjs.com/svgjs"><style>svg#freepik_stories-national-foundation-day:not(.animated) .animable {opacity: 0;}svg#freepik_stories-national-foundation-day.animated #freepik--background-simple--inject-38 {animation: 1.5s Infinite  linear floating;animation-delay: 0s;}svg#freepik_stories-national-foundation-day.animated #freepik--character-3--inject-38 {animation: 1.5s Infinite  linear wind;animation-delay: 0s;}svg#freepik_stories-national-foundation-day.animated #freepik--character-1--inject-38 {animation: 1.5s Infinite  linear wind;animation-delay: 0s;}svg#freepik_stories-national-foundation-day.animated #freepik--character-2--inject-38 {animation: 1.5s Infinite  linear wind;animation-delay: 0s;}            @keyframes floating {                0% {                    opacity: 1;                    transform: translateY(0px);                }                50% {                    transform: translateY(-10px);                }                100% {                    opacity: 1;                    transform: translateY(0px);                }            }                    @keyframes wind {                0% {                    transform: rotate( 0deg );                }                25% {                    transform: rotate( 1deg );                }                75% {                    transform: rotate( -1deg );                }            }        .animator-hidden { display: none; }</style><g id="freepik--background-simple--inject-38" class="animable animator-active" style="transform-origin: 247.613px 240.763px;"><path d="M481.78,208.07c1.13-55.54-18.09-110.35-64-143.56C335.19,4.67,257.31,36,205.07,63.56c-46.92,24.74-110.8,4-150.41,45.78C13.87,152.36,3.72,221,22.45,275.91A166.8,166.8,0,0,0,36,305.75c38,65.53,84,73.2,125.36,95.92S249.71,465.31,319,446.31c47.46-13,82.93-49.73,109.41-89.56C458.45,311.64,480.66,263.16,481.78,208.07Z" style="fill: rgb(247, 71, 67); transform-origin: 247.613px 240.763px;" id="elpppf0jter0i" class="animable"></path><g id="el05iimzpeiy3"><path d="M481.78,208.07c1.13-55.54-18.09-110.35-64-143.56C335.19,4.67,257.31,36,205.07,63.56c-46.92,24.74-110.8,4-150.41,45.78C13.87,152.36,3.72,221,22.45,275.91A166.8,166.8,0,0,0,36,305.75c38,65.53,84,73.2,125.36,95.92S249.71,465.31,319,446.31c47.46-13,82.93-49.73,109.41-89.56C458.45,311.64,480.66,263.16,481.78,208.07Z" style="fill: rgb(255, 255, 255); opacity: 0.7; transform-origin: 247.613px 240.763px;" class="animable"></path></g></g><g id="freepik--Flowers--inject-38" class="animable" style="transform-origin: 265.929px 125.226px;"><path d="M224.78,118.63a3.2,3.2,0,1,1-.12,4.48A3.18,3.18,0,0,1,224.78,118.63Z" style="fill: rgb(247, 71, 67); transform-origin: 227px 120.931px;" id="ell8n4iwiks1j" class="animable"></path><path d="M235.57,104.29c4.14-2.61,10.49,3.58,10,7.63-.6,4.65-13.62,7.41-13.62,7.41a2.57,2.57,0,0,1-1.65-.45.43.43,0,0,0,.26-.11l6.48-6a.51.51,0,0,0-.69-.74l-6.48,6a.53.53,0,0,0-.13.23C228,115.17,232.2,106.42,235.57,104.29Z" style="fill: rgb(247, 71, 67); transform-origin: 237.465px 111.502px;" id="elmxc299c6cg" class="animable"></path><path d="M245.74,123.73c3.95,3,.44,11-3.55,11.83-4.58.94-11.88-10.44-11.88-10.44a2.55,2.55,0,0,1-.18-1.7.45.45,0,0,0,.2.21l8,4.18a.48.48,0,0,0,.67-.21.5.5,0,0,0-.22-.68l-8-4.17a.4.4,0,0,0-.26,0C232.78,120.06,242.53,121.24,245.74,123.73Z" style="fill: rgb(247, 71, 67); transform-origin: 238.765px 128.415px;" id="eltslbf3ol97" class="animable"></path><path d="M231.19,139.55c-1.43,4.7-10.18,4-12.39.47-2.54-4,5.49-14.55,5.49-14.55a2.5,2.5,0,0,1,1.53-.72.53.53,0,0,0-.13.26l-1,8.85a.51.51,0,0,0,.44.57.48.48,0,0,0,.55-.43l1-8.85a.47.47,0,0,0-.05-.26C229.93,126.16,232.36,135.72,231.19,139.55Z" style="fill: rgb(247, 71, 67); transform-origin: 224.896px 133.811px;" id="el01zoece27wc1" class="animable"></path><path d="M211.07,130.94c-4.93.16-7.41-8.32-4.93-11.52,2.85-3.68,15.64.49,15.64.49a2.66,2.66,0,0,1,1.23,1.21.57.57,0,0,0-.29,0L214,123a.48.48,0,0,0-.37.6.5.5,0,0,0,.6.38l8.68-1.88a.48.48,0,0,0,.23-.13C223.18,125.45,215.09,130.81,211.07,130.94Z" style="fill: rgb(247, 71, 67); transform-origin: 214.153px 124.422px;" id="elbauxmcjvr8h" class="animable"></path><path d="M211.86,109.23c-1.94-4.59,5.12-9.65,9-8.35,4.48,1.5,5.2,14.88,5.2,14.88a2.49,2.49,0,0,1-.68,1.55.51.51,0,0,0-.08-.29l-4.91-7.56a.49.49,0,0,0-.69-.16.49.49,0,0,0-.14.69l4.9,7.57a.56.56,0,0,0,.21.17C221.4,118.86,213.43,113,211.86,109.23Z" style="fill: rgb(247, 71, 67); transform-origin: 218.795px 109.272px;" id="elhwotsqgrjre" class="animable"></path><path d="M193.18,110.07a2.11,2.11,0,1,1-.09,3A2.09,2.09,0,0,1,193.18,110.07Z" style="fill: rgb(247, 71, 67); transform-origin: 194.613px 111.614px;" id="elh30k1wvdtta" class="animable"></path><path d="M200.3,100.6c2.73-1.73,6.93,2.36,6.58,5-.39,3.08-9,4.89-9,4.89a1.64,1.64,0,0,1-1.09-.29.3.3,0,0,0,.17-.08l4.28-4a.32.32,0,0,0,0-.46.33.33,0,0,0-.47,0l-4.28,4a.34.34,0,0,0-.09.15C195.28,107.78,198.08,102,200.3,100.6Z" style="fill: rgb(247, 71, 67); transform-origin: 201.523px 105.342px;" id="elhbevyisf5tb" class="animable"></path><path d="M207,113.43c2.6,2,.29,7.28-2.35,7.82-3,.61-7.84-6.9-7.84-6.9a1.62,1.62,0,0,1-.12-1.12.29.29,0,0,0,.13.14l5.27,2.76a.33.33,0,0,0,.44-.14.33.33,0,0,0-.15-.45l-5.26-2.76a.36.36,0,0,0-.17,0C198.45,111,204.89,111.79,207,113.43Z" style="fill: rgb(247, 71, 67); transform-origin: 202.39px 116.526px;" id="elw8dkqj4cqea" class="animable"></path><path d="M197.41,123.88c-.95,3.1-6.73,2.61-8.19.31-1.67-2.65,3.63-9.61,3.63-9.61a1.58,1.58,0,0,1,1-.47.34.34,0,0,0-.08.17l-.68,5.84a.35.35,0,0,0,.29.38.33.33,0,0,0,.37-.28l.68-5.85a.33.33,0,0,0,0-.17C196.58,115,198.18,121.35,197.41,123.88Z" style="fill: rgb(247, 71, 67); transform-origin: 193.25px 120.085px;" id="elpqpsftynptm" class="animable"></path><path d="M184.12,118.19c-3.25.11-4.89-5.49-3.26-7.6,1.88-2.43,10.33.32,10.33.32a1.65,1.65,0,0,1,.81.8.31.31,0,0,0-.19,0l-5.73,1.24a.31.31,0,0,0-.24.39.34.34,0,0,0,.4.26l5.73-1.24a.46.46,0,0,0,.15-.09C192.11,114.57,186.77,118.11,184.12,118.19Z" style="fill: rgb(247, 71, 67); transform-origin: 186.171px 113.889px;" id="el9qi6resukj" class="animable"></path><path d="M184.64,103.85c-1.28-3,3.38-6.37,6-5.51,3,1,3.44,9.83,3.44,9.83a1.65,1.65,0,0,1-.46,1,.34.34,0,0,0-.05-.19l-3.24-5a.34.34,0,0,0-.46-.11.34.34,0,0,0-.09.46l3.24,5a.35.35,0,0,0,.13.11C190.94,110.21,185.68,106.32,184.64,103.85Z" style="fill: rgb(247, 71, 67); transform-origin: 189.251px 103.871px;" id="elobb752wcni" class="animable"></path><path d="M194.94,141.5a1.39,1.39,0,1,1-.06,1.94A1.37,1.37,0,0,1,194.94,141.5Z" style="fill: rgb(247, 71, 67); transform-origin: 195.901px 142.501px;" id="ell6hd1hpm9bm" class="animable"></path><path d="M199.63,135.26c1.8-1.14,4.56,1.56,4.34,3.32-.26,2-5.93,3.22-5.93,3.22a1.12,1.12,0,0,1-.72-.2.18.18,0,0,0,.12,0l2.82-2.6a.23.23,0,0,0,0-.31.22.22,0,0,0-.31,0l-2.82,2.61a.21.21,0,0,0-.06.1C196.32,140,198.17,136.18,199.63,135.26Z" style="fill: rgb(247, 71, 67); transform-origin: 200.44px 138.395px;" id="el9414se8skq" class="animable"></path><path d="M204.05,143.71c1.72,1.33.19,4.8-1.54,5.15-2,.4-5.17-4.54-5.17-4.54a1.11,1.11,0,0,1-.08-.74.2.2,0,0,0,.09.09l3.47,1.82a.22.22,0,0,0,.29-.09.23.23,0,0,0-.09-.3l-3.47-1.82a.25.25,0,0,0-.12,0C198.41,142.12,202.65,142.63,204.05,143.71Z" style="fill: rgb(247, 71, 67); transform-origin: 201.017px 145.751px;" id="el2eq44hrk77d" class="animable"></path><path d="M197.73,150.59c-.63,2-4.44,1.73-5.4.21-1.1-1.75,2.39-6.33,2.39-6.33a1,1,0,0,1,.67-.31.24.24,0,0,0-.06.11l-.44,3.85a.22.22,0,0,0,.19.25.22.22,0,0,0,.24-.19l.45-3.85a.36.36,0,0,0,0-.11C197.18,144.77,198.23,148.93,197.73,150.59Z" style="fill: rgb(247, 71, 67); transform-origin: 194.986px 148.088px;" id="el3vjetrax2zu" class="animable"></path><path d="M189,146.85c-2.14.07-3.22-3.62-2.14-5,1.24-1.6,6.8.21,6.8.21a1.08,1.08,0,0,1,.53.53.16.16,0,0,0-.12,0l-3.77.82a.22.22,0,0,0-.17.26.24.24,0,0,0,.27.17l3.77-.82a.21.21,0,0,0,.1-.06C194.24,144.46,190.72,146.79,189,146.85Z" style="fill: rgb(247, 71, 67); transform-origin: 190.353px 144.02px;" id="el7hovgqh8r7b" class="animable"></path><path d="M189.32,137.4c-.85-2,2.22-4.19,3.92-3.63,1.95.66,2.26,6.48,2.26,6.48a1,1,0,0,1-.3.67.17.17,0,0,0,0-.12L193,137.51a.22.22,0,0,0-.31-.07.22.22,0,0,0-.06.3l2.14,3.29a.16.16,0,0,0,.09.07C193.46,141.59,190,139,189.32,137.4Z" style="fill: rgb(247, 71, 67); transform-origin: 192.337px 137.421px;" id="eloddidxtbzbh" class="animable"></path><path d="M121.62,86.58a2.29,2.29,0,0,1-2.19-2.31,2.16,2.16,0,0,1,2.25-2.15,2.29,2.29,0,0,1,2.19,2.31A2.16,2.16,0,0,1,121.62,86.58Z" style="fill: rgb(247, 71, 67); transform-origin: 121.65px 84.35px;" id="elrps1ydrbcs9" class="animable"></path><path d="M109.06,88.36c-3.4-.75-3.65-6.91-1.4-8.66,2.58-2,10.63,3,10.63,3a1.87,1.87,0,0,1,.63,1,.34.34,0,0,0-.19-.07l-6.27-.22a.33.33,0,0,0-.35.34.35.35,0,0,0,.34.36l6.27.23a.41.41,0,0,0,.18-.05C118.29,86.72,111.83,89,109.06,88.36Z" style="fill: rgb(247, 71, 67); transform-origin: 112.558px 83.8485px;" id="eln03s0urr1c" class="animable"></path><path d="M113.33,73.78c-.54-3.44,5.16-5.65,7.61-4.09,2.81,1.78,1,11,1,11a1.71,1.71,0,0,1-.74.93.34.34,0,0,0,0-.2l-2.06-6a.36.36,0,0,0-.45-.23.35.35,0,0,0-.22.44l2.06,6a.4.4,0,0,0,.12.16C118.21,82,113.77,76.59,113.33,73.78Z" style="fill: rgb(247, 71, 67); transform-origin: 117.904px 75.4883px;" id="el864uf0q3ug4" class="animable"></path><path d="M128.55,73.12c3-1.62,7.18,3,6.6,5.85-.65,3.22-9.93,4.48-9.93,4.48a1.87,1.87,0,0,1-1.14-.4.32.32,0,0,0,.19-.07l4.86-3.86a.36.36,0,0,0-.45-.56l-4.85,3.87a.27.27,0,0,0-.11.15C122.65,80.34,126.08,74.43,128.55,73.12Z" style="fill: rgb(247, 71, 67); transform-origin: 129.362px 78.1172px;" id="elvrzdaaco1e" class="animable"></path><path d="M134.69,87.23c2.62,2.34-.25,7.74-3.09,8.1-3.26.42-7.81-7.91-7.81-7.91a1.78,1.78,0,0,1,0-1.2.4.4,0,0,0,.13.16l5.39,3.33a.35.35,0,0,0,.36-.6l-5.38-3.33a.32.32,0,0,0-.19,0C125.78,84,132.56,85.33,134.69,87.23Z" style="fill: rgb(247, 71, 67); transform-origin: 129.703px 90.144px;" id="eldztel59op0a" class="animable"></path><path d="M123.67,97.55c-1.24,3.22-7.35,2.25-8.72-.3-1.57-2.94,4.6-9.9,4.6-9.9a1.74,1.74,0,0,1,1.11-.42.29.29,0,0,0-.1.18l-1.18,6.13a.37.37,0,0,0,.28.42.35.35,0,0,0,.42-.27l1.17-6.14a.36.36,0,0,0,0-.18C123.47,88.13,124.69,94.94,123.67,97.55Z" style="fill: rgb(247, 71, 67); transform-origin: 119.364px 93.2598px;" id="elnx3nq7uj1r" class="animable"></path><path d="M123.13,121.74a1.5,1.5,0,0,1-1.44-1.52,1.43,1.43,0,0,1,1.49-1.42,1.51,1.51,0,0,1,1.44,1.53A1.42,1.42,0,0,1,123.13,121.74Z" style="fill: rgb(247, 71, 67); transform-origin: 123.155px 120.27px;" id="el2yc67jx19re" class="animable"></path><path d="M114.84,122.92c-2.25-.49-2.41-4.56-.92-5.72,1.7-1.32,7,2,7,2a1.18,1.18,0,0,1,.42.68.21.21,0,0,0-.13,0l-4.13-.15a.23.23,0,0,0-.24.23.25.25,0,0,0,.23.24l4.14.14a.18.18,0,0,0,.12,0C120.94,121.84,116.67,123.32,114.84,122.92Z" style="fill: rgb(247, 71, 67); transform-origin: 117.144px 119.938px;" id="elgv9j7oblk2k" class="animable"></path><path d="M117.66,113.3c-.36-2.28,3.41-3.74,5-2.71,1.85,1.18.66,7.25.66,7.25a1.14,1.14,0,0,1-.48.61.2.2,0,0,0,0-.13l-1.36-3.95a.23.23,0,1,0-.44.15l1.36,3.94a.39.39,0,0,0,.08.1C120.88,118.69,118,115.15,117.66,113.3Z" style="fill: rgb(247, 71, 67); transform-origin: 120.666px 114.409px;" id="elb7ivvmtal5p" class="animable"></path><path d="M127.71,112.85c2-1.06,4.74,2,4.36,3.87-.43,2.12-6.56,3-6.56,3a1.19,1.19,0,0,1-.75-.27.22.22,0,0,0,.13,0l3.2-2.55a.24.24,0,0,0-.29-.37L124.59,119a.61.61,0,0,0-.07.1C123.82,117.62,126.08,113.72,127.71,112.85Z" style="fill: rgb(247, 71, 67); transform-origin: 128.247px 116.176px;" id="ely7zzenz6blj" class="animable"></path><path d="M131.77,122.18c1.72,1.54-.17,5.1-2.05,5.34-2.15.28-5.15-5.22-5.15-5.22a1.14,1.14,0,0,1,0-.79.22.22,0,0,0,.09.1l3.55,2.2a.22.22,0,0,0,.32-.07.23.23,0,0,0-.08-.32l-3.55-2.2a.18.18,0,0,0-.12,0C125.88,120,130.36,120.92,131.77,122.18Z" style="fill: rgb(247, 71, 67); transform-origin: 128.472px 124.088px;" id="el7nrneyg4pfb" class="animable"></path><path d="M124.49,129c-.82,2.13-4.85,1.49-5.76-.2-1-1.94,3-6.53,3-6.53a1.11,1.11,0,0,1,.73-.28.26.26,0,0,0-.07.11l-.77,4.06a.23.23,0,0,0,.18.27.23.23,0,0,0,.28-.18l.77-4a.25.25,0,0,0,0-.12C124.36,122.77,125.16,127.27,124.49,129Z" style="fill: rgb(247, 71, 67); transform-origin: 121.649px 126.17px;" id="elx5xzrz67zfq" class="animable"></path><path d="M140.25,111.89a1.51,1.51,0,0,1-1.45-1.52,1.43,1.43,0,0,1,1.49-1.41,1.51,1.51,0,0,1,1.45,1.52A1.43,1.43,0,0,1,140.25,111.89Z" style="fill: rgb(247, 71, 67); transform-origin: 140.27px 110.425px;" id="el93aucj6hf76" class="animable"></path><path d="M132,113.07c-2.25-.49-2.41-4.56-.93-5.71,1.71-1.32,7,2,7,2a1.18,1.18,0,0,1,.42.68.21.21,0,0,0-.13-.05l-4.13-.15a.23.23,0,0,0-.24.23.24.24,0,0,0,.23.24l4.14.15a.21.21,0,0,0,.11,0C138.06,112,133.79,113.47,132,113.07Z" style="fill: rgb(247, 71, 67); transform-origin: 134.298px 110.093px;" id="elufg1xmwbyga" class="animable"></path><path d="M134.78,103.45c-.36-2.28,3.41-3.74,5-2.71,1.86,1.18.67,7.25.67,7.25a1.15,1.15,0,0,1-.49.61.19.19,0,0,0,0-.13l-1.36-3.94a.23.23,0,0,0-.3-.15.22.22,0,0,0-.14.29l1.36,3.94a.2.2,0,0,0,.08.1C138,108.84,135.07,105.3,134.78,103.45Z" style="fill: rgb(247, 71, 67); transform-origin: 137.79px 104.559px;" id="elhjmi8qfl9g" class="animable"></path><path d="M144.83,103c2-1.07,4.74,2,4.36,3.86-.43,2.13-6.56,3-6.56,3a1.24,1.24,0,0,1-.75-.26.26.26,0,0,0,.12,0l3.21-2.55a.24.24,0,0,0,0-.33.23.23,0,0,0-.32,0l-3.21,2.55a.26.26,0,0,0-.07.11C140.93,107.77,143.19,103.87,144.83,103Z" style="fill: rgb(247, 71, 67); transform-origin: 145.356px 106.32px;" id="elo6d58z96woi" class="animable"></path><path d="M148.88,112.33c1.73,1.54-.16,5.11-2,5.35-2.15.27-5.15-5.23-5.15-5.23a1.14,1.14,0,0,1,0-.79.22.22,0,0,0,.09.1l3.55,2.2a.23.23,0,0,0,.32-.07.23.23,0,0,0-.08-.32l-3.55-2.2a.27.27,0,0,0-.12,0C143,110.19,147.48,111.07,148.88,112.33Z" style="fill: rgb(247, 71, 67); transform-origin: 145.611px 114.252px;" id="elmihq0gid2ee" class="animable"></path><path d="M141.61,119.15c-.83,2.12-4.86,1.48-5.76-.21-1-1.94,3-6.53,3-6.53a1.13,1.13,0,0,1,.74-.28.26.26,0,0,0-.07.11l-.77,4.06a.22.22,0,0,0,.18.27.22.22,0,0,0,.27-.17l.78-4.06a.17.17,0,0,0,0-.12C141.48,112.92,142.28,117.42,141.61,119.15Z" style="fill: rgb(247, 71, 67); transform-origin: 138.769px 116.311px;" id="elg0guc1znz9e" class="animable"></path><path d="M248.22,126.66a58.38,58.38,0,0,1,8.36,4.43c3.47,2.35,4.8,10.19,4.8,10.19S247.48,136.14,248.22,126.66Z" style="fill: rgb(247, 71, 67); transform-origin: 254.786px 133.97px;" id="elwpg1r0ycxa9" class="animable"></path><path d="M258,145.53a55.38,55.38,0,0,1-4.28,8.27c-2.28,3.42-10.09,4.55-10.09,4.55S248.54,144.55,258,145.53Z" style="fill: rgb(247, 71, 67); transform-origin: 250.815px 151.915px;" id="elfobovqw2j0r" class="animable"></path><path d="M102,65.37a58.39,58.39,0,0,1,1.66,9.29c.28,4.14-5.15,9.8-5.15,9.8S94,70.33,102,65.37Z" style="fill: rgb(247, 71, 67); transform-origin: 100.457px 74.915px;" id="el2lk8oglbeog" class="animable"></path><path d="M99.26,89.34A55.92,55.92,0,0,1,90,90.77c-4.13.17-9.88-5.41-9.88-5.41S94.16,81.2,99.26,89.34Z" style="fill: rgb(247, 71, 67); transform-origin: 89.69px 87.5355px;" id="elq3x2gj90r4" class="animable"></path><path d="M178.07,131.21a26,26,0,0,1-3.86,2.16c-1.81.76-5.27-.81-5.27-.81S174.48,128.38,178.07,131.21Z" style="fill: rgb(247, 71, 67); transform-origin: 173.505px 131.902px;" id="elnl40zaw8wv" class="animable"></path><path d="M57.35,65.88s1.44-7.66-1.32-9.62-2.61,3.32-2.61,3.32-5.09-7-6-3.44S52,63.64,52,63.64s-6.86-1.78-3.07,2.84S57.35,65.88,57.35,65.88Z" style="fill: rgb(247, 71, 67); transform-origin: 52.5218px 61.7595px;" id="elylnlzph67yj" class="animable"></path><path d="M172.18,108.26s1.45-7.66-1.31-9.62-2.62,3.33-2.62,3.33-5.08-7-6-3.45,4.57,7.5,4.57,7.5-6.86-1.78-3.06,2.84S172.18,108.26,172.18,108.26Z" style="fill: rgb(247, 71, 67); transform-origin: 167.353px 104.142px;" id="el599exuj5zpi" class="animable"></path><path d="M172.22,108.23a87.94,87.94,0,0,1,7.64,9.13,33.44,33.44,0,0,1,3.24,5,17.42,17.42,0,0,1,1.87,5.68l-.1,0a53.47,53.47,0,0,0-2.75-5.19c-1-1.68-1.93-3.39-3-5.05s-2.2-3.27-3.37-4.85-2.36-3.17-3.62-4.7Z" style="fill: rgb(247, 71, 67); transform-origin: 178.55px 118.135px;" id="elz3pf88hyc4h" class="animable"></path><path d="M97.86,156.75a1.46,1.46,0,0,1-2,.48,1.5,1.5,0,0,1-.52-2,1.45,1.45,0,0,1,2-.48A1.49,1.49,0,0,1,97.86,156.75Z" style="fill: rgb(247, 71, 67); transform-origin: 96.6017px 155.988px;" id="el5s8bki11p9l" class="animable"></path><path d="M94.9,164.62c-1.5,1.72-5.14-.26-5.43-2.15-.33-2.18,5.12-5.11,5.12-5.11a1.16,1.16,0,0,1,.8,0,.28.28,0,0,0-.11.08L93.17,161a.23.23,0,0,0,.08.32.23.23,0,0,0,.32-.07l2.12-3.55a.27.27,0,0,0,0-.12C96.89,158.72,96.13,163.23,94.9,164.62Z" style="fill: rgb(247, 71, 67); transform-origin: 92.8746px 161.284px;" id="elb2juhwehlh" class="animable"></path><path d="M87.86,157.16c-2.15-.86-1.62-4.92,0-5.8,1.93-1,6.65,3.17,6.65,3.17a1.21,1.21,0,0,1,.3.75.24.24,0,0,0-.12-.07l-4.09-.85a.22.22,0,0,0-.27.18.24.24,0,0,0,.18.28l4.1.85a.25.25,0,0,0,.12,0C94.12,157.14,89.62,157.87,87.86,157.16Z" style="fill: rgb(247, 71, 67); transform-origin: 90.6247px 154.32px;" id="elg5mo01q2z9" class="animable"></path><path d="M92.31,148.13c0-2.31,4-3.11,5.46-1.81,1.65,1.48-.57,7.28-.57,7.28a1.15,1.15,0,0,1-.59.52.32.32,0,0,0,0-.14L96,149.86a.24.24,0,0,0-.27-.2.22.22,0,0,0-.19.26l.68,4.13a.2.2,0,0,0,.06.11C94.6,154,92.28,150,92.31,148.13Z" style="fill: rgb(247, 71, 67); transform-origin: 95.3449px 149.929px;" id="el40dsvhz8bqm" class="animable"></path><path d="M102.39,149.41c2.18-.71,4.38,2.8,3.69,4.57-.8,2-7,1.8-7,1.8a1.17,1.17,0,0,1-.7-.39.15.15,0,0,0,.13,0l3.63-2a.24.24,0,0,0,.09-.32.23.23,0,0,0-.32-.09l-3.63,2a.2.2,0,0,0-.09.09C97.7,153.46,100.62,150,102.39,149.41Z" style="fill: rgb(247, 71, 67); transform-origin: 102.172px 152.551px;" id="elnkbgkh5kn9s" class="animable"></path><path d="M104.84,159.32c1.46,1.82-1,5-2.94,4.94-2.19-.1-4.24-6-4.24-6a1.15,1.15,0,0,1,.1-.78.75.75,0,0,0,.07.12l3.17,2.78a.25.25,0,0,0,.33,0,.24.24,0,0,0,0-.33l-3.16-2.78-.12-.06C99.35,156.21,103.66,157.84,104.84,159.32Z" style="fill: rgb(247, 71, 67); transform-origin: 101.457px 160.581px;" id="elpg02yiteb59" class="animable"></path><path d="M118.61,167.92a1,1,0,0,1-1.33.31,1,1,0,0,1-.35-1.34,1,1,0,0,1,1.34-.32A1,1,0,0,1,118.61,167.92Z" style="fill: rgb(247, 71, 67); transform-origin: 117.773px 167.399px;" id="elgrbgkdeyvo" class="animable"></path><path d="M116.66,173.12c-1,1.13-3.4-.17-3.59-1.43-.22-1.43,3.38-3.37,3.38-3.37a.8.8,0,0,1,.53,0,.2.2,0,0,0-.07.06l-1.4,2.34a.16.16,0,0,0,.06.22.16.16,0,0,0,.21-.05l1.4-2.35a.11.11,0,0,0,0-.08C118,169.22,117.47,172.2,116.66,173.12Z" style="fill: rgb(247, 71, 67); transform-origin: 115.326px 170.914px;" id="el8qoxld68a3x" class="animable"></path><path d="M112,168.19c-1.43-.57-1.07-3.25,0-3.83,1.27-.67,4.39,2.1,4.39,2.1a.76.76,0,0,1,.2.49l-.08,0-2.7-.56a.14.14,0,0,0-.18.12.16.16,0,0,0,.12.18l2.71.56a.11.11,0,0,0,.08,0C116.14,168.18,113.17,168.66,112,168.19Z" style="fill: rgb(247, 71, 67); transform-origin: 113.824px 166.314px;" id="el5yob9w1gb8n" class="animable"></path><path d="M114.94,162.23c0-1.53,2.67-2,3.61-1.2,1.09,1-.37,4.81-.37,4.81a.82.82,0,0,1-.39.34.14.14,0,0,0,0-.09l-.45-2.72a.16.16,0,0,0-.18-.14.17.17,0,0,0-.13.18l.46,2.73a.15.15,0,0,0,0,.07C116.46,166.11,114.93,163.47,114.94,162.23Z" style="fill: rgb(247, 71, 67); transform-origin: 116.947px 163.428px;" id="elq78i3a4dxh9" class="animable"></path><path d="M121.6,163.07c1.44-.46,2.89,1.85,2.44,3-.53,1.34-4.65,1.19-4.65,1.19a.79.79,0,0,1-.46-.26.11.11,0,0,0,.08,0l2.4-1.3a.16.16,0,0,0,.06-.21.16.16,0,0,0-.21-.07l-2.4,1.31-.06,0C118.51,165.75,120.43,163.46,121.6,163.07Z" style="fill: rgb(247, 71, 67); transform-origin: 121.447px 165.138px;" id="elo9686sr5fuj" class="animable"></path><path d="M123.22,169.62c1,1.2-.68,3.31-1.94,3.26-1.45-.06-2.8-4-2.8-4a.72.72,0,0,1,.07-.52.13.13,0,0,0,0,.07l2.09,1.84a.16.16,0,0,0,.22,0,.15.15,0,0,0,0-.22l-2.09-1.84a.09.09,0,0,0-.07,0C119.59,167.56,122.44,168.64,123.22,169.62Z" style="fill: rgb(247, 71, 67); transform-origin: 120.992px 170.447px;" id="elz2a5at92f2" class="animable"></path><path d="M118.37,154.65A1,1,0,0,1,117,155a1,1,0,0,1-.34-1.34,1,1,0,0,1,1.34-.32A1,1,0,0,1,118.37,154.65Z" style="fill: rgb(247, 71, 67); transform-origin: 117.505px 154.172px;" id="el0rivw9hnt23l" class="animable"></path><path d="M116.42,159.85c-1,1.13-3.4-.18-3.59-1.43-.22-1.44,3.38-3.37,3.38-3.37a.77.77,0,0,1,.52,0,.12.12,0,0,0-.06.06l-1.4,2.34a.16.16,0,0,0,0,.21.15.15,0,0,0,.22-.05l1.39-2.34a.11.11,0,0,0,0-.08C117.73,156,117.23,158.92,116.42,159.85Z" style="fill: rgb(247, 71, 67); transform-origin: 115.071px 157.643px;" id="elrffsm75w95" class="animable"></path><path d="M111.76,154.92c-1.42-.57-1.07-3.25,0-3.83,1.27-.67,4.39,2.09,4.39,2.09a.8.8,0,0,1,.2.49l-.08,0-2.7-.56a.14.14,0,0,0-.18.12.16.16,0,0,0,.12.18l2.7.56a.14.14,0,0,0,.09,0C115.9,154.9,112.92,155.39,111.76,154.92Z" style="fill: rgb(247, 71, 67); transform-origin: 113.586px 153.043px;" id="elrdizdkkw5xl" class="animable"></path><path d="M114.7,149c0-1.53,2.66-2.06,3.61-1.2s-.38,4.8-.38,4.8a.74.74,0,0,1-.38.35.28.28,0,0,0,0-.09l-.45-2.73a.17.17,0,0,0-.18-.13.16.16,0,0,0-.13.18l.45,2.72a.2.2,0,0,0,0,.08C116.21,152.84,114.68,150.2,114.7,149Z" style="fill: rgb(247, 71, 67); transform-origin: 116.676px 150.184px;" id="el23yt1yfu5e9" class="animable"></path><path d="M121.36,149.8c1.44-.47,2.89,1.85,2.44,3-.53,1.34-4.65,1.19-4.65,1.19a.82.82,0,0,1-.47-.26h.09l2.4-1.31a.15.15,0,0,0,0-.21.16.16,0,0,0-.21-.06l-2.39,1.3a.34.34,0,0,0-.06.06C118.26,152.48,120.19,150.18,121.36,149.8Z" style="fill: rgb(247, 71, 67); transform-origin: 121.186px 151.867px;" id="elxsw70mhp4v" class="animable"></path><path d="M123,156.35c1,1.2-.68,3.31-2,3.26-1.44-.07-2.8-4-2.8-4a.86.86,0,0,1,.07-.52.22.22,0,0,0,0,.08l2.09,1.84a.17.17,0,0,0,.22,0,.16.16,0,0,0,0-.22l-2.09-1.84a.11.11,0,0,0-.07,0C119.35,154.29,122.2,155.36,123,156.35Z" style="fill: rgb(247, 71, 67); transform-origin: 120.745px 157.179px;" id="el03k7ell33o6c" class="animable"></path><path d="M88.15,170.26A38.82,38.82,0,0,1,94,172.48c2.48,1.26,4,6.33,4,6.33S88.47,176.59,88.15,170.26Z" style="fill: rgb(247, 71, 67); transform-origin: 93.075px 174.535px;" id="el7luh8tcii6n" class="animable"></path><path d="M101.09,180.06A37.62,37.62,0,0,1,99,185.9c-1.21,2.45-6.25,3.86-6.25,3.86S94.78,180.22,101.09,180.06Z" style="fill: rgb(247, 71, 67); transform-origin: 96.92px 184.91px;" id="elsfapzb28zt9" class="animable"></path><path d="M57.68,190.79s-4-3.46-6-2.53,1.09,2.65,1.09,2.65-5.67.53-3.91,2.31,5.78-.08,5.78-.08-3.2,3.36.66,2.75S57.68,190.79,57.68,190.79Z" style="fill: rgb(247, 71, 67); transform-origin: 53.24px 192.033px;" id="elap3cn0ad38u" class="animable"></path><polygon points="278.74 150.55 208.13 128.24 208.5 128.29 150.06 129.11 149.82 129.12 149.62 128.99 89.05 89.54 89.08 89.56 63.54 77.48 63.52 77.47 63.5 77.44 54.61 64.53 63.67 77.33 63.63 77.29 89.32 89.02 89.34 89.03 89.36 89.04 150.44 127.68 150 127.55 208.4 125.94 208.59 125.93 208.78 125.99 279.67 147.34 278.74 150.55" style="fill: rgb(247, 71, 67); transform-origin: 167.14px 107.54px;" id="elbuf5vjdo6ra" class="animable"></polygon><polygon points="58.42 192.45 58.09 191.37 98.16 180.11 112.51 159.19 112.61 159.13 135.07 145.03 140.8 133.98 149.71 127.87 150.35 128.79 141.66 134.75 135.92 145.83 135.8 145.91 113.31 160.02 98.86 181.08 98.67 181.13 58.42 192.45" style="fill: rgb(247, 71, 67); transform-origin: 104.22px 160.16px;" id="elww2ushhai99" class="animable"></polygon><path d="M297.73,160.28a3.2,3.2,0,1,1-1.87-4.07A3.17,3.17,0,0,1,297.73,160.28Z" style="fill: rgb(247, 71, 67); transform-origin: 294.722px 159.199px;" id="elaqvdaffumf" class="animable"></path><path d="M294.39,177.91c-2.56,4.17-11,1.42-12.32-2.44C280.56,171,291,162.81,291,162.81a2.57,2.57,0,0,1,1.68-.33.46.46,0,0,0-.19.22l-3.16,8.24a.5.5,0,0,0,.29.65.51.51,0,0,0,.66-.28l3.16-8.25a.46.46,0,0,0,0-.26C296.41,164.79,296.47,174.52,294.39,177.91Z" style="fill: rgb(247, 71, 67); transform-origin: 288.874px 171.224px;" id="el6rrbtr7v353" class="animable"></path><path d="M276.68,165c-4.89-1-5.27-9.7-2.05-12.19,3.7-2.86,15.27,4.12,15.27,4.12a2.55,2.55,0,0,1,.92,1.44.63.63,0,0,0-.28-.1l-9-.22a.5.5,0,0,0-.51.49.52.52,0,0,0,.5.51l9,.22a.56.56,0,0,0,.26-.07C289.93,162.53,280.66,165.78,276.68,165Z" style="fill: rgb(247, 71, 67); transform-origin: 281.683px 158.619px;" id="el6na589yofkh" class="animable"></path><path d="M282.74,144.35c-.79-4.85,7.39-8.06,10.91-5.9,4.05,2.48,1.5,15.48,1.5,15.48a2.44,2.44,0,0,1-1,1.32.57.57,0,0,0,0-.29l-3-8.4a.52.52,0,0,0-.65-.31.5.5,0,0,0-.31.63l3,8.39a.5.5,0,0,0,.16.22C289.78,155.8,283.38,148.3,282.74,144.35Z" style="fill: rgb(247, 71, 67); transform-origin: 289.314px 146.632px;" id="elyxzl0na7tbd" class="animable"></path><path d="M304.6,143.18c4.35-2.32,10.32,4.19,9.51,8.16-.93,4.55-14.25,6.46-14.25,6.46a2.52,2.52,0,0,1-1.63-.54.47.47,0,0,0,.27-.1l6.95-5.51a.5.5,0,0,0,.07-.71.51.51,0,0,0-.71-.07l-6.95,5.52a.39.39,0,0,0-.15.21C296.16,153.45,301.05,145.07,304.6,143.18Z" style="fill: rgb(247, 71, 67); transform-origin: 305.8px 150.247px;" id="el2kbcakaau0u" class="animable"></path><path d="M313.48,163c3.77,3.26-.33,10.92-4.4,11.47-4.69.64-11.25-11-11.25-11a2.48,2.48,0,0,1-.06-1.69.45.45,0,0,0,.19.22l7.74,4.62a.52.52,0,0,0,.7-.17.5.5,0,0,0-.18-.68l-7.75-4.62a.48.48,0,0,0-.26-.06C300.67,158.58,310.42,160.35,313.48,163Z" style="fill: rgb(247, 71, 67); transform-origin: 306.31px 167.188px;" id="eltie56cmoh3f" class="animable"></path><path d="M329.87,154a2.12,2.12,0,1,1-1.23-2.69A2.09,2.09,0,0,1,329.87,154Z" style="fill: rgb(247, 71, 67); transform-origin: 327.878px 153.287px;" id="el2adzsmomzb3" class="animable"></path><path d="M327.66,165.65c-1.69,2.75-7.26.94-8.13-1.62-1-2.92,5.91-8.35,5.91-8.35a1.68,1.68,0,0,1,1.11-.22.28.28,0,0,0-.12.14l-2.09,5.45a.33.33,0,0,0,.62.24l2.09-5.45a.25.25,0,0,0,0-.17C329,157,329,163.41,327.66,165.65Z" style="fill: rgb(247, 71, 67); transform-origin: 324.015px 161.233px;" id="eltygu8r0zt2l" class="animable"></path><path d="M316,157.1c-3.23-.66-3.48-6.4-1.35-8,2.44-1.89,10.08,2.72,10.08,2.72a1.67,1.67,0,0,1,.61,1,.34.34,0,0,0-.19-.07l-5.94-.15a.34.34,0,0,0-.34.32.34.34,0,0,0,.33.34l5.95.15a.34.34,0,0,0,.17,0C324.72,155.49,318.6,157.64,316,157.1Z" style="fill: rgb(247, 71, 67); transform-origin: 319.305px 152.915px;" id="elrje25cwzyd" class="animable"></path><path d="M320,143.48c-.52-3.2,4.88-5.32,7.21-3.89,2.67,1.64,1,10.22,1,10.22a1.62,1.62,0,0,1-.7.87.31.31,0,0,0,0-.19l-2-5.54a.33.33,0,0,0-.43-.21.33.33,0,0,0-.2.42l2,5.54a.3.3,0,0,0,.11.14C324.62,151.05,320.4,146.09,320,143.48Z" style="fill: rgb(247, 71, 67); transform-origin: 324.345px 144.991px;" id="elp4ypxusj62m" class="animable"></path><path d="M334.41,142.71c2.87-1.53,6.81,2.77,6.28,5.39-.62,3-9.41,4.27-9.41,4.27a1.7,1.7,0,0,1-1.08-.36.3.3,0,0,0,.18-.06L335,148.3a.32.32,0,0,0,0-.46.33.33,0,0,0-.47-.05l-4.6,3.64a.38.38,0,0,0-.09.15C328.84,149.5,332.06,144,334.41,142.71Z" style="fill: rgb(247, 71, 67); transform-origin: 335.196px 147.38px;" id="el8cmlozzi48t" class="animable"></path><path d="M340.27,155.81c2.49,2.15-.21,7.21-2.91,7.57-3.09.42-7.42-7.3-7.42-7.3a1.53,1.53,0,0,1,0-1.11.24.24,0,0,0,.12.14l5.12,3a.32.32,0,0,0,.45-.1.33.33,0,0,0-.11-.46l-5.12-3a.33.33,0,0,0-.17,0C331.81,152.88,338.25,154.05,340.27,155.81Z" style="fill: rgb(247, 71, 67); transform-origin: 335.545px 158.57px;" id="el0uabkwgotwud" class="animable"></path><path d="M314.41,126.59a1.39,1.39,0,1,1-.81-1.78A1.38,1.38,0,0,1,314.41,126.59Z" style="fill: rgb(247, 71, 67); transform-origin: 313.107px 126.109px;" id="el9q97vj658y7" class="animable"></path><path d="M313,134.25c-1.11,1.82-4.78.62-5.35-1.06-.66-1.93,3.89-5.5,3.89-5.5a1.08,1.08,0,0,1,.73-.15.39.39,0,0,0-.08.1l-1.38,3.58a.22.22,0,0,0,.13.28.21.21,0,0,0,.28-.12l1.38-3.58a.17.17,0,0,0,0-.12C313.83,128.55,313.86,132.78,313,134.25Z" style="fill: rgb(247, 71, 67); transform-origin: 310.588px 131.344px;" id="eldid0cql9fri" class="animable"></path><path d="M305.25,128.62c-2.13-.43-2.29-4.21-.89-5.3,1.61-1.24,6.64,1.8,6.64,1.8a1.07,1.07,0,0,1,.4.62.21.21,0,0,0-.12,0l-3.91-.1a.22.22,0,1,0,0,.44l3.92.09a.23.23,0,0,0,.11,0C311,127.56,307,129,305.25,128.62Z" style="fill: rgb(247, 71, 67); transform-origin: 307.426px 125.852px;" id="elny3pvfcel9" class="animable"></path><path d="M307.89,119.66c-.34-2.11,3.21-3.51,4.75-2.57,1.75,1.08.65,6.73.65,6.73a1.07,1.07,0,0,1-.46.58.29.29,0,0,0,0-.13l-1.3-3.65a.24.24,0,0,0-.28-.14.22.22,0,0,0-.14.28l1.3,3.65a.16.16,0,0,0,.07.09C311,124.64,308.17,121.37,307.89,119.66Z" style="fill: rgb(247, 71, 67); transform-origin: 310.749px 120.648px;" id="elq93i5we99qf" class="animable"></path><path d="M317.39,119.15c1.9-1,4.49,1.82,4.14,3.55-.4,2-6.2,2.81-6.2,2.81a1.14,1.14,0,0,1-.71-.24.16.16,0,0,0,.12,0l3-2.4a.22.22,0,0,0,0-.3.22.22,0,0,0-.31,0l-3,2.4a.21.21,0,0,0-.06.1C313.73,123.62,315.85,120,317.39,119.15Z" style="fill: rgb(247, 71, 67); transform-origin: 317.907px 122.226px;" id="el0nfhnxa1va9" class="animable"></path><path d="M321.26,127.77c1.64,1.42-.14,4.75-1.92,5-2,.28-4.89-4.8-4.89-4.8a1.12,1.12,0,0,1,0-.74.28.28,0,0,0,.09.1l3.37,2a.22.22,0,0,0,.3-.08.21.21,0,0,0-.08-.29l-3.37-2a.2.2,0,0,0-.11,0C315.69,125.85,319.92,126.62,321.26,127.77Z" style="fill: rgb(247, 71, 67); transform-origin: 318.148px 129.601px;" id="el3qjje61f95r" class="animable"></path><path d="M404.44,143.47a2.29,2.29,0,0,1,3,1.1,2.16,2.16,0,0,1-1.07,2.92,2.29,2.29,0,0,1-3-1.1A2.16,2.16,0,0,1,404.44,143.47Z" style="fill: rgb(247, 71, 67); transform-origin: 405.405px 145.48px;" id="elrp6q6qqmpi" class="animable"></path><path d="M414.93,136.32c3.38-.83,6.32,4.59,5.07,7.15-1.43,2.93-10.87,2-10.87,2a1.83,1.83,0,0,1-1-.65.34.34,0,0,0,.2,0l5.72-2.57a.33.33,0,0,0,.17-.46.35.35,0,0,0-.47-.17L408,144.14a.44.44,0,0,0-.14.13C407.36,141.87,412.17,137,414.93,136.32Z" style="fill: rgb(247, 71, 67); transform-origin: 414.059px 140.922px;" id="elsdja0xlwaw9" class="animable"></path><path d="M417.53,151.28c2,2.85-2.13,7.36-5,7-3.31-.36-5.75-9.4-5.75-9.4a1.73,1.73,0,0,1,.25-1.16.38.38,0,0,0,.09.18l4.49,4.45a.36.36,0,0,0,.5,0,.35.35,0,0,0,0-.5l-4.48-4.45a.38.38,0,0,0-.17-.08C409.55,146.11,415.9,149,417.53,151.28Z" style="fill: rgb(247, 71, 67); transform-origin: 412.411px 152.667px;" id="el3k26elqq81" class="animable"></path><path d="M404.17,158.61c-2,2.78-7.78.44-8.51-2.33-.83-3.18,6.94-8.41,6.94-8.41a1.79,1.79,0,0,1,1.19-.15.34.34,0,0,0-.14.15l-2.65,5.6a.36.36,0,0,0,.65.31l2.65-5.61a.31.31,0,0,0,0-.19C406.27,149.52,405.81,156.34,404.17,158.61Z" style="fill: rgb(247, 71, 67); transform-origin: 400.598px 153.769px;" id="elm7tkkyla2mg" class="animable"></path><path d="M392.43,148.66c-3.38-.95-3.19-7.06-.8-8.64,2.74-1.81,10.49,3.65,10.49,3.65a1.78,1.78,0,0,1,.57,1.06.33.33,0,0,0-.19-.08l-6.3-.61a.34.34,0,0,0-.38.31.36.36,0,0,0,.32.39l6.3.6a.4.4,0,0,0,.19,0C401.85,147.62,395.18,149.43,392.43,148.66Z" style="fill: rgb(247, 71, 67); transform-origin: 396.275px 144.246px;" id="eletse8mzfi34" class="animable"></path><path d="M397.75,134.53c-.3-3.44,5.6-5.27,8-3.58,2.71,1.94.25,10.91.25,10.91a1.73,1.73,0,0,1-.81.87.34.34,0,0,0,0-.2l-1.66-6a.35.35,0,0,0-.43-.25.34.34,0,0,0-.25.42l1.66,6a.39.39,0,0,0,.1.16C402.1,142.9,398,137.32,397.75,134.53Z" style="fill: rgb(247, 71, 67); transform-origin: 402.381px 136.586px;" id="el4hwdfpylmk3" class="animable"></path><path d="M387.55,112.59a1.51,1.51,0,0,1,2,.72,1.43,1.43,0,0,1-.71,1.93,1.5,1.5,0,0,1-2-.72A1.43,1.43,0,0,1,387.55,112.59Z" style="fill: rgb(247, 71, 67); transform-origin: 388.195px 113.917px;" id="elpbsny7tzmgk" class="animable"></path><path d="M394.47,107.87c2.24-.55,4.18,3,3.36,4.72-.95,1.94-7.18,1.3-7.18,1.3a1.21,1.21,0,0,1-.68-.42.23.23,0,0,0,.14,0l3.77-1.69a.23.23,0,0,0,.12-.31.25.25,0,0,0-.32-.11L389.91,113a.39.39,0,0,0-.1.08C389.48,111.53,392.65,108.32,394.47,107.87Z" style="fill: rgb(247, 71, 67); transform-origin: 393.904px 110.902px;" id="elbys7c4wz537" class="animable"></path><path d="M396.19,117.75c1.33,1.88-1.4,4.85-3.31,4.65-2.19-.24-3.8-6.21-3.8-6.21a1.14,1.14,0,0,1,.17-.77.17.17,0,0,0,.06.12l3,2.94a.24.24,0,0,0,.33,0,.22.22,0,0,0,0-.32l-3-2.94a.24.24,0,0,0-.11-.06C390.92,114.33,395.12,116.21,396.19,117.75Z" style="fill: rgb(247, 71, 67); transform-origin: 392.806px 118.683px;" id="eld9j1w9jjjk8" class="animable"></path><path d="M387.37,122.58c-1.33,1.85-5.14.3-5.62-1.53-.55-2.1,4.58-5.56,4.58-5.56a1.19,1.19,0,0,1,.79-.09.2.2,0,0,0-.09.09l-1.75,3.71a.22.22,0,0,0,.11.3.23.23,0,0,0,.31-.1l1.75-3.71a.17.17,0,0,0,0-.12C388.76,116.59,388.45,121.08,387.37,122.58Z" style="fill: rgb(247, 71, 67); transform-origin: 385.01px 119.392px;" id="eldzfhykanxcs" class="animable"></path><path d="M379.62,116c-2.24-.62-2.11-4.65-.53-5.7,1.81-1.2,6.93,2.41,6.93,2.41a1.18,1.18,0,0,1,.37.7.17.17,0,0,0-.12,0l-4.16-.41a.23.23,0,1,0,0,.46l4.16.41.12,0C385.84,115.33,381.43,116.52,379.62,116Z" style="fill: rgb(247, 71, 67); transform-origin: 382.154px 113.09px;" id="el39zgam5hacj" class="animable"></path><path d="M383.13,106.68c-.2-2.26,3.7-3.47,5.26-2.36,1.79,1.28.16,7.2.16,7.2a1.13,1.13,0,0,1-.53.58.29.29,0,0,0,0-.13l-1.1-4a.24.24,0,0,0-.29-.17.22.22,0,0,0-.16.28l1.09,4a.18.18,0,0,0,.07.1C386,112.21,383.29,108.53,383.13,106.68Z" style="fill: rgb(247, 71, 67); transform-origin: 386.176px 108.041px;" id="elk211ltj0drd" class="animable"></path><path d="M376.54,129a1.51,1.51,0,0,1,2,.72,1.44,1.44,0,0,1-.71,1.93,1.5,1.5,0,0,1-2-.73A1.42,1.42,0,0,1,376.54,129Z" style="fill: rgb(247, 71, 67); transform-origin: 377.184px 130.326px;" id="elg9w2lh1v7y6" class="animable"></path><path d="M383.47,124.27c2.23-.56,4.17,3,3.35,4.72-.95,1.93-7.18,1.3-7.18,1.3a1.22,1.22,0,0,1-.68-.43.22.22,0,0,0,.14,0l3.78-1.69a.24.24,0,0,0-.2-.43l-3.78,1.7a.24.24,0,0,0-.09.08C378.47,127.93,381.65,124.72,383.47,124.27Z" style="fill: rgb(247, 71, 67); transform-origin: 382.898px 127.3px;" id="elylyxh8nsl8" class="animable"></path><path d="M385.19,134.15c1.32,1.88-1.41,4.85-3.32,4.64-2.18-.23-3.8-6.21-3.8-6.21a1.18,1.18,0,0,1,.17-.76.27.27,0,0,0,.06.12l3,2.94a.25.25,0,0,0,.34,0,.23.23,0,0,0,0-.33l-3-2.93a.24.24,0,0,0-.11-.06C379.92,130.73,384.11,132.61,385.19,134.15Z" style="fill: rgb(247, 71, 67); transform-origin: 381.8px 135.079px;" id="el0n48hqirw0r" class="animable"></path><path d="M376.37,139c-1.33,1.84-5.14.29-5.62-1.54-.55-2.1,4.58-5.55,4.58-5.55a1.18,1.18,0,0,1,.78-.1.43.43,0,0,0-.09.1l-1.75,3.7a.23.23,0,0,0,.12.31.23.23,0,0,0,.31-.11l1.75-3.7a.17.17,0,0,0,0-.12C377.75,133,377.45,137.48,376.37,139Z" style="fill: rgb(247, 71, 67); transform-origin: 374.008px 135.805px;" id="elxypvvvmy5j" class="animable"></path><path d="M368.61,132.41c-2.23-.62-2.11-4.66-.53-5.7,1.81-1.2,6.93,2.41,6.93,2.41a1.23,1.23,0,0,1,.38.7.31.31,0,0,0-.13-.06l-4.16-.4a.23.23,0,1,0,0,.46l4.16.4a.16.16,0,0,0,.12,0C374.83,131.72,370.43,132.92,368.61,132.41Z" style="fill: rgb(247, 71, 67); transform-origin: 371.151px 129.497px;" id="el034r64eqz9tn" class="animable"></path><path d="M372.12,123.08c-.19-2.27,3.7-3.48,5.26-2.36,1.79,1.28.16,7.2.16,7.2a1.17,1.17,0,0,1-.53.58.23.23,0,0,0,0-.14l-1.1-4a.23.23,0,0,0-.28-.16.22.22,0,0,0-.17.28l1.1,4a.21.21,0,0,0,.06.1C375,128.61,372.29,124.93,372.12,123.08Z" style="fill: rgb(247, 71, 67); transform-origin: 375.166px 124.438px;" id="elh1iip4e2ryj" class="animable"></path><path d="M273.16,163.43a58.32,58.32,0,0,1-9.46-.28c-4.15-.58-8.8-7-8.8-7S269.64,154.6,273.16,163.43Z" style="fill: rgb(247, 71, 67); transform-origin: 264.03px 159.777px;" id="el0hoic9ahqxne" class="animable"></path><path d="M256,150.83a56,56,0,0,1,.18-9.31c.54-4.07,7.05-8.53,7.05-8.53S265,147.52,256,150.83Z" style="fill: rgb(247, 71, 67); transform-origin: 259.628px 141.91px;" id="elaftqsknvky7" class="animable"></path><path d="M431.39,153.83a57.89,57.89,0,0,1-5.58-7.59c-2.09-3.6.28-11.07.28-11.07S436.39,145.85,431.39,153.83Z" style="fill: rgb(247, 71, 67); transform-origin: 428.854px 144.5px;" id="elddcqmjeokbc" class="animable"></path><path d="M423.28,131.11a56.7,56.7,0,0,1,7.66-5.36c3.63-2,11.25.49,11.25.49S431.45,136.17,423.28,131.11Z" style="fill: rgb(247, 71, 67); transform-origin: 432.735px 128.76px;" id="el6j71u75cb2" class="animable"></path><path d="M334.08,128.36a26.56,26.56,0,0,1,2.51-3.64c1.29-1.48,5.09-1.6,5.09-1.6S338.56,129.32,334.08,128.36Z" style="fill: rgb(247, 71, 67); transform-origin: 337.88px 125.791px;" id="elnr6zmqhker" class="animable"></path><path d="M471.25,133.64s2.08,7.51,5.43,8.05.87-4.13.87-4.13,7.67,4.06,6.94.43-7.42-4.72-7.42-4.72,6.94-1.43,1.5-3.9S471.25,133.64,471.25,133.64Z" style="fill: rgb(247, 71, 67); transform-origin: 477.894px 135.28px;" id="eloksi5n8hbi" class="animable"></path><path d="M349.5,146.35s2.09,7.51,5.43,8.05.88-4.14.88-4.14,7.67,4.07,6.93.43-7.41-4.71-7.41-4.71,6.94-1.44,1.49-3.9S349.5,146.35,349.5,146.35Z" style="fill: rgb(247, 71, 67); transform-origin: 356.145px 147.991px;" id="el1jxjrmqtorq" class="animable"></path><path d="M349.48,146.4a89.33,89.33,0,0,1-10.88-4.82,33.85,33.85,0,0,1-5.13-3.08,17.52,17.52,0,0,1-4.19-4.27l.08-.07a54.24,54.24,0,0,0,4.76,3.45c1.62,1.07,3.23,2.18,4.92,3.2s3.41,2,5.17,2.87,3.51,1.8,5.31,2.62Z" style="fill: rgb(247, 71, 67); transform-origin: 339.4px 140.28px;" id="elk5lq2gpztkb" class="animable"></path><path d="M394.76,70a1.44,1.44,0,0,1,1.6-1.32,1.49,1.49,0,0,1,1.37,1.6,1.46,1.46,0,0,1-1.6,1.32A1.5,1.5,0,0,1,394.76,70Z" style="fill: rgb(247, 71, 67); transform-origin: 396.245px 70.139px;" id="ela5wqtil6zt" class="animable"></path><path d="M393.94,61.65c.59-2.2,4.72-2,5.82-.47C401,63,397.42,68,397.42,68a1.13,1.13,0,0,1-.7.36.21.21,0,0,0,0-.12l.33-4.12a.23.23,0,0,0-.21-.25.23.23,0,0,0-.26.21l-.33,4.11a.21.21,0,0,0,0,.12C394.76,67.82,393.45,63.44,393.94,61.65Z" style="fill: rgb(247, 71, 67); transform-origin: 396.928px 64.1872px;" id="elu51x9ly2tp8" class="animable"></path><path d="M403.55,65.23c2.32-.17,3.63,3.7,2.52,5.23-1.28,1.76-7.37.09-7.37.09a1.24,1.24,0,0,1-.6-.54.17.17,0,0,0,.14,0l4.05-1a.22.22,0,0,0,.16-.28.24.24,0,0,0-.29-.17l-4.05,1a.23.23,0,0,0-.1.07C398,68,401.66,65.37,403.55,65.23Z" style="fill: rgb(247, 71, 67); transform-origin: 402.24px 68.2454px;" id="elton5bqh7jdm" class="animable"></path><path d="M403.55,75.3c1,2.08-2.24,4.57-4.1,4-2.14-.6-2.7-6.78-2.7-6.78a1.09,1.09,0,0,1,.29-.73.22.22,0,0,0,0,.13l2.44,3.4a.24.24,0,0,0,.33.06.23.23,0,0,0,.06-.32l-2.44-3.41a.23.23,0,0,0-.1-.07C398.9,71,402.75,73.6,403.55,75.3Z" style="fill: rgb(247, 71, 67); transform-origin: 400.244px 75.44px;" id="el3g174jkqu66" class="animable"></path><path d="M393.94,78.6c-1.64,1.6-5.17-.57-5.33-2.47-.18-2.17,5.52-4.72,5.52-4.72a1.25,1.25,0,0,1,.8,0,.28.28,0,0,0-.11.08l-2.38,3.38a.23.23,0,0,0,.06.32.24.24,0,0,0,.33-.06l2.38-3.37a.15.15,0,0,0,0-.11C396.36,72.9,395.27,77.3,393.94,78.6Z" style="fill: rgb(247, 71, 67); transform-origin: 392.15px 75.2504px;" id="elcn2dwbg21jg" class="animable"></path><path d="M387.36,70.8c-2.11-1-1.29-5,.46-5.74,2-.88,6.48,3.55,6.48,3.55a1.18,1.18,0,0,1,.25.76.21.21,0,0,0-.11-.08l-4.07-1.09a.22.22,0,0,0-.29.16.23.23,0,0,0,.17.28l4.07,1.1a.24.24,0,0,0,.12,0C393.67,71.16,389.08,71.6,387.36,70.8Z" style="fill: rgb(247, 71, 67); transform-origin: 390.327px 68.0703px;" id="elcqzg4rwatsn" class="animable"></path><path d="M371.21,69.17a1,1,0,0,1,1.06-.88,1,1,0,0,1,.9,1.06,1,1,0,0,1-1.06.87A1,1,0,0,1,371.21,69.17Z" style="fill: rgb(247, 71, 67); transform-origin: 372.19px 69.255px;" id="elxb5v8k5foq" class="animable"></path><path d="M370.67,63.64c.39-1.46,3.12-1.35,3.84-.31S373,67.85,373,67.85a.82.82,0,0,1-.47.24.12.12,0,0,0,0-.08l.22-2.72a.16.16,0,0,0-.14-.17.15.15,0,0,0-.17.14L372.23,68a.12.12,0,0,0,0,.08C371.21,67.71,370.35,64.82,370.67,63.64Z" style="fill: rgb(247, 71, 67); transform-origin: 372.628px 65.318px;" id="elvdjcyjw504g" class="animable"></path><path d="M377,66c1.53-.11,2.39,2.45,1.66,3.46-.85,1.16-4.87.05-4.87.05a.76.76,0,0,1-.39-.35.14.14,0,0,0,.09,0l2.67-.69a.15.15,0,0,0,.11-.19.16.16,0,0,0-.19-.11l-2.68.69s-.05,0-.06,0C373.32,67.84,375.77,66.1,377,66Z" style="fill: rgb(247, 71, 67); transform-origin: 376.132px 67.9927px;" id="el031kae9ld16j" class="animable"></path><path d="M377,72.65c.65,1.38-1.49,3-2.71,2.67-1.41-.4-1.79-4.48-1.79-4.48a.76.76,0,0,1,.2-.48.19.19,0,0,0,0,.08l1.61,2.25a.16.16,0,0,0,.22,0,.15.15,0,0,0,0-.21L373,70.27a.18.18,0,0,0-.07,0C373.94,69.83,376.48,71.53,377,72.65Z" style="fill: rgb(247, 71, 67); transform-origin: 374.81px 72.7811px;" id="elpf6mu1pflyq" class="animable"></path><path d="M370.67,74.83c-1.09,1.06-3.41-.38-3.52-1.63-.12-1.43,3.65-3.12,3.65-3.12a.78.78,0,0,1,.53,0,.14.14,0,0,0-.08,0l-1.57,2.22a.16.16,0,1,0,.26.18l1.57-2.22a.26.26,0,0,0,0-.08C372.27,71.07,371.55,74,370.67,74.83Z" style="fill: rgb(247, 71, 67); transform-origin: 369.489px 72.616px;" id="el3pdlaptquu4" class="animable"></path><path d="M366.32,69.68c-1.39-.66-.85-3.28.31-3.79,1.33-.58,4.28,2.35,4.28,2.35a.79.79,0,0,1,.16.49.18.18,0,0,0-.07,0L368.31,68a.16.16,0,0,0-.19.11.16.16,0,0,0,.11.19l2.69.72H371C370.49,69.92,367.46,70.21,366.32,69.68Z" style="fill: rgb(247, 71, 67); transform-origin: 368.282px 67.8792px;" id="elhotpfhzn1" class="animable"></path><path d="M377.29,81a1,1,0,0,1,1.06-.88,1,1,0,0,1,.9,1.06,1,1,0,0,1-1.06.87A1,1,0,0,1,377.29,81Z" style="fill: rgb(247, 71, 67); transform-origin: 378.27px 81.085px;" id="elouvrfy8blik" class="animable"></path><path d="M376.75,75.44c.39-1.46,3.12-1.35,3.84-.31.84,1.19-1.54,4.52-1.54,4.52a.79.79,0,0,1-.47.24.12.12,0,0,0,0-.08l.22-2.72a.16.16,0,0,0-.14-.17.15.15,0,0,0-.17.14l-.22,2.72a.12.12,0,0,0,0,.08C377.29,79.51,376.43,76.62,376.75,75.44Z" style="fill: rgb(247, 71, 67); transform-origin: 378.726px 77.118px;" id="el4bvh0ekjxqf" class="animable"></path><path d="M383.1,77.8c1.53-.11,2.39,2.45,1.66,3.46s-4.87,0-4.87,0a.76.76,0,0,1-.39-.35.14.14,0,0,0,.09,0l2.67-.69a.15.15,0,0,0,.11-.19.16.16,0,0,0-.19-.11l-2.68.69s-.05,0-.06,0C379.4,79.64,381.85,77.9,383.1,77.8Z" style="fill: rgb(247, 71, 67); transform-origin: 382.232px 79.7527px;" id="eldw581azlliq" class="animable"></path><path d="M383.1,84.45c.65,1.38-1.49,3-2.71,2.67-1.41-.4-1.79-4.48-1.79-4.48a.76.76,0,0,1,.2-.48.19.19,0,0,0,0,.08l1.61,2.25a.16.16,0,0,0,.22,0,.15.15,0,0,0,0-.21l-1.61-2.25a.18.18,0,0,0-.07,0C380,81.63,382.56,83.33,383.1,84.45Z" style="fill: rgb(247, 71, 67); transform-origin: 380.91px 84.5668px;" id="elzq0h3q982me" class="animable"></path><path d="M376.75,86.63c-1.09,1.06-3.41-.38-3.52-1.63-.12-1.43,3.65-3.12,3.65-3.12a.78.78,0,0,1,.53,0,.14.14,0,0,0-.08,0l-1.57,2.23a.15.15,0,0,0,0,.21.16.16,0,0,0,.22,0l1.57-2.22a.26.26,0,0,0,0-.08C378.35,82.87,377.63,85.77,376.75,86.63Z" style="fill: rgb(247, 71, 67); transform-origin: 375.562px 84.416px;" id="eleqqr6ya9l9b" class="animable"></path><path d="M372.4,81.48c-1.39-.66-.85-3.28.31-3.79C374,77.11,377,80,377,80a.79.79,0,0,1,.16.49.18.18,0,0,0-.07,0l-2.69-.72a.16.16,0,0,0-.19.11.16.16,0,0,0,.11.19l2.69.72a.11.11,0,0,0,.08,0C376.57,81.72,373.54,82,372.4,81.48Z" style="fill: rgb(247, 71, 67); transform-origin: 374.367px 79.676px;" id="elij8jc3f2l2" class="animable"></path><path d="M397.51,53.61a38.59,38.59,0,0,1-6.26.6c-2.78,0-6.4-3.9-6.4-3.9S394.43,48.07,397.51,53.61Z" style="fill: rgb(247, 71, 67); transform-origin: 391.18px 52.0361px;" id="elxocjiznl55" class="animable"></path><path d="M381.57,50.53a37.7,37.7,0,0,1-.69-6.17c0-2.73,3.91-6.22,3.91-6.22S387.16,47.6,381.57,50.53Z" style="fill: rgb(247, 71, 67); transform-origin: 383.085px 44.335px;" id="elfwv4lfzpn5" class="animable"></path><path d="M415.77,21.73s5.07,1.35,6.47-.36-2.15-1.9-2.15-1.9,4.85-3,2.48-3.79-5.15,2.61-5.15,2.61,1.39-4.42-1.8-2.17S415.77,21.73,415.77,21.73Z" style="fill: rgb(247, 71, 67); transform-origin: 418.731px 18.8588px;" id="elyc67fj84j2j" class="animable"></path><polygon points="235.22 155.49 308.43 144.31 308.07 144.42 360.14 117.87 360.35 117.76 360.59 117.79 432.36 126.42 432.32 126.42 460.57 125.97 460.6 125.97 460.62 125.99 474.3 133.65 460.52 126.17 460.57 126.18 432.34 127.01 432.32 127.01 432.3 127.01 360.43 119.33 360.88 119.24 309.2 146.49 309.04 146.57 308.84 146.61 235.81 158.76 235.22 155.49" style="fill: rgb(247, 71, 67); transform-origin: 354.76px 138.26px;" id="el1mdb8csn6ef" class="animable"></polygon><polygon points="414.38 20.57 415.14 21.39 384.17 49.19 380.54 74.3 380.49 74.4 366.56 96.97 366.3 109.41 361 118.83 360.02 118.28 365.18 109.1 365.44 96.63 365.52 96.51 379.46 73.91 383.11 48.63 383.26 48.5 414.38 20.57" style="fill: rgb(247, 71, 67); transform-origin: 387.58px 69.7px;" id="elh627cbe9qe5" class="animable"></polygon><circle cx="255.28" cy="131.45" r="103.52" style="fill: rgb(247, 71, 67); transform-origin: 255.28px 131.45px;" id="elsm7jfkfdit" class="animable"></circle></g><g id="freepik--Text--inject-38" class="animable animator-hidden" style="transform-origin: 255.275px 130.87px;"><path d="M212.78,110.76h-2.24V88.31h3.17l5.2,16.23V88.31h2.21v22.45h-2.59l-5.75-18.15Z" style="fill: rgb(255, 255, 255); transform-origin: 215.83px 99.535px;" id="elyx0mh3pnzmq" class="animable"></path><path d="M226.22,106.24l-.86,4.52h-2.31l4.3-22.45H231l4.3,22.45h-2.5l-.87-4.52Zm.32-2.15h5l-2.54-13Z" style="fill: rgb(255, 255, 255); transform-origin: 229.175px 99.535px;" id="elcavkfzic107" class="animable"></path><path d="M239.24,110.76V90.59h-4.13V88.31h10.74v2.28h-4.14v20.17Z" style="fill: rgb(255, 255, 255); transform-origin: 240.48px 99.535px;" id="el0ftiuxiqzl6j" class="animable"></path><path d="M250.05,88.31v22.45h-2.5V88.31Z" style="fill: rgb(255, 255, 255); transform-origin: 248.8px 99.535px;" id="el3sbpj5a62wx" class="animable"></path><path d="M252.42,93.73c0-3.43,1.7-5.64,5.14-5.64s5.16,2.21,5.16,5.64v11.61c0,3.4-1.7,5.65-5.16,5.65s-5.14-2.25-5.14-5.65Zm2.47,11.74c0,2.06.87,3.24,2.67,3.24s2.66-1.18,2.66-3.24V93.6c0-2-.84-3.23-2.66-3.23s-2.67,1.21-2.67,3.23Z" style="fill: rgb(255, 255, 255); transform-origin: 257.57px 99.54px;" id="elxitnubk03a8" class="animable"></path><path d="M267.31,110.76h-2.25V88.31h3.18l5.19,16.23V88.31h2.21v22.45h-2.59l-5.74-18.15Z" style="fill: rgb(255, 255, 255); transform-origin: 270.35px 99.535px;" id="ellhp37wdfbjb" class="animable"></path><path d="M280.74,106.24l-.86,4.52h-2.31l4.3-22.45h3.62l4.3,22.45h-2.5l-.87-4.52Zm.32-2.15h5l-2.54-13Z" style="fill: rgb(255, 255, 255); transform-origin: 283.68px 99.535px;" id="el4z74eloy3jp" class="animable"></path><path d="M291.74,110.76V88.31h2.51v20.18h6.41v2.27Z" style="fill: rgb(255, 255, 255); transform-origin: 296.2px 99.535px;" id="el4b3yggyw8so" class="animable"></path><path d="M206.18,130.21v2.28H201v9.72h-2.5V119.75h8.92V122H201v8.18Z" style="fill: rgb(255, 255, 255); transform-origin: 202.96px 130.98px;" id="ela7ycxvqxgnv" class="animable"></path><path d="M209.22,125.18c0-3.44,1.7-5.65,5.14-5.65s5.16,2.21,5.16,5.65v11.61c0,3.4-1.7,5.64-5.16,5.64s-5.14-2.24-5.14-5.64Zm2.47,11.73c0,2.06.87,3.24,2.67,3.24S217,139,217,136.91V125.05c0-2-.84-3.24-2.66-3.24s-2.67,1.22-2.67,3.24Z" style="fill: rgb(255, 255, 255); transform-origin: 214.37px 130.98px;" id="elx2nmrie65rj" class="animable"></path><path d="M224.27,136.91c0,2,.8,3.24,2.63,3.24s2.59-1.21,2.59-3.24V119.75h2.35v17c0,3.4-1.58,5.67-5,5.67s-5-2.27-5-5.67v-17h2.47Z" style="fill: rgb(255, 255, 255); transform-origin: 226.84px 131.085px;" id="elur42skguxv" class="animable"></path><path d="M236.52,142.21h-2.25V119.75h3.18L242.64,136V119.75h2.22v22.46h-2.6l-5.74-18.16Z" style="fill: rgb(255, 255, 255); transform-origin: 239.565px 130.98px;" id="elpbu960y9fy" class="animable"></path><path d="M252.68,119.75c3.5,0,5.1,2.12,5.1,5.59v11.32c0,3.43-1.6,5.55-5.1,5.55h-5.26V119.75Zm0,20.18c1.8,0,2.66-1.12,2.66-3.18V125.21c0-2.06-.86-3.18-2.69-3.18h-2.7v17.9Z" style="fill: rgb(255, 255, 255); transform-origin: 252.6px 130.98px;" id="elq85xof65zxi" class="animable"></path><path d="M262.62,137.68l-.86,4.53h-2.31l4.3-22.46h3.62l4.3,22.46h-2.5l-.87-4.53Zm.32-2.14h5l-2.54-13Z" style="fill: rgb(255, 255, 255); transform-origin: 265.56px 130.98px;" id="eluimvob3o2ze" class="animable"></path><path d="M275.64,142.21V122h-4.13v-2.28h10.74V122h-4.14v20.18Z" style="fill: rgb(255, 255, 255); transform-origin: 276.88px 130.965px;" id="el7xoo2dl5xzd" class="animable"></path><path d="M286.45,119.75v22.46H284V119.75Z" style="fill: rgb(255, 255, 255); transform-origin: 285.225px 130.98px;" id="eln2sznz2eor" class="animable"></path><path d="M288.83,125.18c0-3.44,1.69-5.65,5.13-5.65s5.16,2.21,5.16,5.65v11.61c0,3.4-1.7,5.64-5.16,5.64s-5.13-2.24-5.13-5.64Zm2.46,11.73c0,2.06.87,3.24,2.67,3.24s2.66-1.18,2.66-3.24V125.05c0-2-.83-3.24-2.66-3.24s-2.67,1.22-2.67,3.24Z" style="fill: rgb(255, 255, 255); transform-origin: 293.975px 130.98px;" id="eldcdkqdsmao" class="animable"></path><path d="M303.71,142.21h-2.25V119.75h3.18L309.83,136V119.75h2.22v22.46h-2.6l-5.74-18.16Z" style="fill: rgb(255, 255, 255); transform-origin: 306.755px 130.98px;" id="elvxljtka5gf" class="animable"></path><path d="M243,151.2c3.49,0,5.1,2.11,5.1,5.58V168.1c0,3.43-1.61,5.55-5.1,5.55h-5.26V151.2Zm0,20.17c1.8,0,2.67-1.12,2.67-3.17V156.65c0-2.05-.87-3.18-2.7-3.18h-2.69v17.9Z" style="fill: rgb(255, 255, 255); transform-origin: 242.92px 162.425px;" id="elxqmtxgkgmes" class="animable"></path><path d="M252.94,169.13l-.87,4.52h-2.31l4.3-22.45h3.62l4.3,22.45h-2.5l-.86-4.52Zm.32-2.15h5l-2.53-13Z" style="fill: rgb(255, 255, 255); transform-origin: 255.87px 162.425px;" id="elqek3supzi5s" class="animable"></path><path d="M266.34,165.6l-4.74-14.4h2.6l3.49,11,3.53-11h2.37l-4.78,14.4v8.05h-2.47Z" style="fill: rgb(255, 255, 255); transform-origin: 267.595px 162.425px;" id="el3xdvj24xqt1" class="animable"></path></g><g id="freepik--character-3--inject-38" class="animable" style="transform-origin: 352.26px 281.832px;"><rect x="299.8" y="304.96" width="49.49" height="24.4" style="fill: none; stroke: rgb(38, 50, 56); stroke-linecap: round; stroke-linejoin: round; transform-origin: 324.545px 317.16px;" id="el9sb2xibh3bs" class="animable"></rect><polyline points="389.15 480.23 381.93 415.62 353.75 240.36 337.26 230.73 313.55 231.76 304.27 237.95 270.93 433.15 268.53 479.23" style="fill: rgb(255, 255, 255); stroke: rgb(38, 50, 56); stroke-linecap: round; stroke-linejoin: round; transform-origin: 328.84px 355.48px;" id="el1uxsa8w4u1d" class="animable"></polyline><rect x="287.73" y="320.4" width="74" height="24.67" style="fill: rgb(247, 71, 67); stroke: rgb(38, 50, 56); stroke-linecap: round; stroke-linejoin: round; transform-origin: 324.73px 332.735px;" id="el0mzm2abpz4co" class="animable"></rect><polygon points="321.45 270.25 299.11 306.1 303.36 306.63 324.87 271.84 340.81 238.38 339.75 230.94 335.23 236.25 321.45 270.25" style="fill: rgb(38, 50, 56); stroke: rgb(38, 50, 56); stroke-linecap: round; stroke-linejoin: round; transform-origin: 319.96px 268.785px;" id="elzqi4b89zjkj" class="animable"></polygon><g id="ell70dljrk4y"><rect x="410.91" y="86.63" width="51.46" height="36.38" style="fill: rgb(255, 255, 255); stroke: rgb(38, 50, 56); stroke-linecap: round; stroke-linejoin: round; transform-origin: 436.64px 104.82px; transform: rotate(-7.48089deg);" class="animable"></rect></g><g id="elz2cdimzvaw"><circle cx="436.64" cy="104.82" r="10.65" style="fill: rgb(247, 71, 67); transform-origin: 436.64px 104.82px; transform: rotate(-9deg);" class="animable"></circle></g><g id="elh610emnyuhs"><rect x="409.28" y="89.14" width="3.55" height="57.67" style="fill: rgb(255, 255, 255); stroke: rgb(38, 50, 56); stroke-linecap: round; stroke-linejoin: round; transform-origin: 411.055px 117.975px; transform: rotate(-7.38deg);" class="animable"></rect></g><path d="M408.68,219.09,404,167.67l-2.21-20.08s6.76-6.87,8.49-7.72,4.88,2.22,7.06,7.49,2.3,7.19,1.2,13.34-1.14,3.74-1.11,6.14,14.12,53.2,15.3,65a56.58,56.58,0,0,1,0,12.57,7,7,0,0,1-5.89,6L410.23,253Z" style="fill: rgb(255, 255, 255); stroke: rgb(38, 50, 56); stroke-linecap: round; stroke-linejoin: round; transform-origin: 417.435px 196.365px;" id="elyoqhsz6l1bh" class="animable"></path><path d="M411,141.06s1.59,13.72,4.29,15.28,6.39-1.69,7-2.08-.11-11.6-1.37-13.77S411.62,140.68,411,141.06Z" style="fill: rgb(255, 255, 255); stroke: rgb(38, 50, 56); stroke-linecap: round; stroke-linejoin: round; transform-origin: 416.755px 148.172px;" id="elv3t94irgf89" class="animable"></path><path d="M411.71,144.74a22.69,22.69,0,0,0,9.77-1" style="fill: none; stroke: rgb(38, 50, 56); stroke-linecap: round; stroke-linejoin: round; transform-origin: 416.595px 144.316px;" id="elows364c511" class="animable"></path><path d="M412.53,149.54a37.17,37.17,0,0,0,9.71-1.21" style="fill: none; stroke: rgb(38, 50, 56); stroke-linecap: round; stroke-linejoin: round; transform-origin: 417.385px 148.936px;" id="elfpik8e1xxjq" class="animable"></path><path d="M413.87,153.74s5.36.41,8.21-1.72" style="fill: none; stroke: rgb(38, 50, 56); stroke-linecap: round; stroke-linejoin: round; transform-origin: 417.975px 152.896px;" id="el96266lihdxw" class="animable"></path><path d="M402.52,153.25s-2.21-6.83-2.33-8.75,7.37-9,7.37-9,7.53,1.91,9.18,2.25,2.87,2,1.5,2.72-5.56,1.09-5.56,1.09l-2.38-.15s3.05,8.55-.35,13.36" style="fill: rgb(255, 255, 255); stroke: rgb(38, 50, 56); stroke-linecap: round; stroke-linejoin: round; transform-origin: 409.51px 145.135px;" id="elcyadocnu05" class="animable"></path><path d="M337.26,230.73s1.37,3.44,4.46,26.81,9.63,177.67,9.63,177.67,11.68.34,20.62.34a50.6,50.6,0,0,0,17.18-3.44L369.22,312.87l-3.1-23.72s9.28,18.91,19.25,28.53,36.08,19.59,36.08,19.59-1-69.77-3.43-92.45-11.69-35.39-11.69-35.39-.69-3.44-4.81,1.37l-4.12,4.81s-5.85-2.75-6.53.69a21.3,21.3,0,0,1-1.38,4.81s-1-1.37-3.09,1-3.09,2.75-3.09,2.75-22,5.5-23,5.84S337.26,230.73,337.26,230.73Z" style="fill: rgb(38, 50, 56); stroke: rgb(38, 50, 56); stroke-linecap: round; stroke-linejoin: round; transform-origin: 379.355px 321.894px;" id="elxb32ixqasuc" class="animable"></path><path d="M362.46,249c-.35-2-.73-3.87-1.15-5.57" style="fill: none; stroke: rgb(92, 92, 92); stroke-linecap: round; stroke-linejoin: round; transform-origin: 361.885px 246.215px;" id="el4venpmsqzx7" class="animable"></path><path d="M366.12,289.15s-.66-19.33-2.85-35" style="fill: none; stroke: rgb(92, 92, 92); stroke-linecap: round; stroke-linejoin: round; transform-origin: 364.695px 271.65px;" id="elvezfekt68hk" class="animable"></path><path d="M389.49,221.11s2.75,11.69,2.75,19.93" style="fill: none; stroke: rgb(92, 92, 92); stroke-linecap: round; stroke-linejoin: round; transform-origin: 390.865px 231.075px;" id="el5u5xyx9w53l" class="animable"></path><path d="M400.75,246.81c.05,1.82.08,3.69.08,5.57" style="fill: none; stroke: rgb(92, 92, 92); stroke-linecap: round; stroke-linejoin: round; transform-origin: 400.79px 249.595px;" id="elpanre3ft3u" class="animable"></path><path d="M397.4,215.61a201.3,201.3,0,0,1,3.1,25.7" style="fill: none; stroke: rgb(92, 92, 92); stroke-linecap: round; stroke-linejoin: round; transform-origin: 398.95px 228.46px;" id="elzidlirq845" class="animable"></path><path d="M254.21,366.27,254,386.12l-2.39,14.3c-.52,3.17,4.24,13.76,4.24,13.76s5.56,1.85,6.88,1.85,3.18-.79,3.44-2.11-3.17-1.86-3.17-1.86L260,406l2.11-8.48s1.06,8.48,1.06,10.06a1.72,1.72,0,0,0,3.44,0c.53-2.64.27-10.85,0-15.88l-.26-5-2.65-4.76,5.3-13.5Z" style="fill: rgb(255, 255, 255); stroke: rgb(38, 50, 56); stroke-linecap: round; stroke-linejoin: round; transform-origin: 260.285px 391.15px;" id="elkgtv0oaq20p" class="animable"></path><path d="M311.14,230.73l-6.87,5.16s-36.77,6.18-36.43,7.56a11,11,0,0,1,.34,2.4L240,366.82A123.8,123.8,0,0,0,254.44,373c8.59,3.09,19.93,4.12,19.93,4.12l-5.84,58.08s10,5.5,33.33,3.43c0,0,3.44-183.85,5.16-195.53S311.14,230.73,311.14,230.73Z" style="fill: rgb(38, 50, 56); stroke: rgb(38, 50, 56); stroke-linecap: round; stroke-linejoin: round; transform-origin: 275.57px 334.913px;" id="el00q458rt347h" class="animable"></path><path d="M283.71,252.77a36,36,0,0,1,1.31-5.2" style="fill: none; stroke: rgb(92, 92, 92); stroke-linecap: round; stroke-linejoin: round; transform-origin: 284.365px 250.17px;" id="el3w0z6tldlyb" class="animable"></path><path d="M274.37,377.13S278,292,282.72,258.79" style="fill: none; stroke: rgb(92, 92, 92); stroke-linecap: round; stroke-linejoin: round; transform-origin: 278.545px 317.96px;" id="el1abkq2fo5wt" class="animable"></path><path d="M309.08,220.42s-1,13.75.68,15.81,11.69,34,11.69,34l16.84-37.11.34-9.62Z" style="fill: rgb(255, 255, 255); stroke: rgb(38, 50, 56); stroke-linecap: round; stroke-linejoin: round; transform-origin: 323.707px 245.325px;" id="els489yzpkska" class="animable"></path><path d="M309.4,235.5a134.9,134.9,0,0,0,26.33-10.44l-8.2-2.7-18.45-1.94S308.21,232,309.4,235.5Z" style="fill: rgb(38, 50, 56); stroke: rgb(38, 50, 56); stroke-linecap: round; stroke-linejoin: round; transform-origin: 322.252px 227.96px;" id="elo6ibq5ykees" class="animable"></path><path d="M301.52,202.55s-5.5-6.18-6.53.69,8.25,10.31,8.25,10.31Z" style="fill: rgb(255, 255, 255); stroke: rgb(38, 50, 56); stroke-linecap: round; stroke-linejoin: round; transform-origin: 299.075px 206.773px;" id="elgvfvqhnqrf5" class="animable"></path><path d="M345.08,200.15s5.5-6.19,6.53.69-8.25,10.31-8.25,10.31Z" style="fill: rgb(255, 255, 255); stroke: rgb(38, 50, 56); stroke-linecap: round; stroke-linejoin: round; transform-origin: 347.525px 204.371px;" id="elmhz60oyq8ys" class="animable"></path><path d="M299.8,199.12s3.09,21,6.18,24.4,13.06,7.56,20.28,6.53,15.46-6.19,17.87-8.25,1.37-24.4,1.37-24.4-.34-6.53-.34-12.37-1.72-11-6.18-12.72-26.47-.34-34,4.47-6.53,12-6.53,12Z" style="fill: rgb(255, 255, 255); stroke: rgb(38, 50, 56); stroke-linecap: round; stroke-linejoin: round; transform-origin: 322.065px 200.905px;" id="elmx7gvyl76m" class="animable"></path><path d="M308.05,199.12s5.84-1,7.9,2.06" style="fill: none; stroke: rgb(38, 50, 56); stroke-linecap: round; stroke-linejoin: round; transform-origin: 312px 200.072px;" id="elvb47prr992r" class="animable"></path><path d="M330.38,200.84s1.8-2.75,8.25-1.72" style="fill: none; stroke: rgb(38, 50, 56); stroke-linecap: round; stroke-linejoin: round; transform-origin: 334.505px 199.865px;" id="elye8v34jhy1m" class="animable"></path><path d="M327.29,203.58l-.34-9.27s5.15-5.85,12.71-.69" style="fill: none; stroke: rgb(38, 50, 56); stroke-linecap: round; stroke-linejoin: round; transform-origin: 333.305px 197.536px;" id="elabffelb4z7" class="animable"></path><path d="M319.39,194.65s-9.28-5.84-13.06.34" style="fill: none; stroke: rgb(38, 50, 56); stroke-linecap: round; stroke-linejoin: round; transform-origin: 312.86px 193.571px;" id="elfbzt89grf1s" class="animable"></path><path d="M318.36,210.46s5.15,3.78,11.68-.69" style="fill: none; stroke: rgb(38, 50, 56); stroke-linecap: round; stroke-linejoin: round; transform-origin: 324.2px 210.861px;" id="elura85bg7iq" class="animable"></path><path d="M314.58,214.93a19.89,19.89,0,0,0,10,2.4c6.19,0,9.28-3.09,9.28-3.09" style="fill: none; stroke: rgb(38, 50, 56); stroke-linecap: round; stroke-linejoin: round; transform-origin: 324.22px 215.788px;" id="eld3gcbjuyh2s" class="animable"></path><path d="M338.63,176.09s-14.43,8.59-22,11.34a51.28,51.28,0,0,1-15.47,2.75l.35,12.37-1.72-3.43-1.38-10.31s-7.21,2.06-5.84-7.22,13.06-21,29.9-22S341,170.94,341,170.94s8.59,2.06,10.65,8.59-4.12,12.37-4.12,12.37l-1,11h-1.38l-1.37-12.37S334.51,185.71,338.63,176.09Z" style="fill: rgb(38, 50, 56); stroke: rgb(38, 50, 56); stroke-linecap: round; stroke-linejoin: round; transform-origin: 322.234px 181.216px;" id="eli8kvqvhhbe" class="animable"></path></g><g id="freepik--character-1--inject-38" class="animable" style="transform-origin: 140.48px 293.672px;"><g id="elyhvhikvyf4"><rect x="40.33" y="110.73" width="51.46" height="36.38" style="fill: rgb(255, 255, 255); stroke: rgb(38, 50, 56); stroke-linecap: round; stroke-linejoin: round; transform-origin: 66.06px 128.92px; transform: rotate(-172.519deg);" class="animable"></rect></g><g id="el7b9tomsmgcm"><circle cx="66.06" cy="128.92" r="10.65" style="fill: rgb(247, 71, 67); transform-origin: 66.06px 128.92px; transform: rotate(-63.88deg);" class="animable"></circle></g><g id="elukwin235ds"><rect x="89.87" y="113.24" width="3.55" height="57.67" style="fill: rgb(255, 255, 255); stroke: rgb(38, 50, 56); stroke-linecap: round; stroke-linejoin: round; transform-origin: 91.645px 142.075px; transform: rotate(-172.62deg);" class="animable"></rect></g><path d="M110.44,227.48l-7.66-45-2.67-17.67s-7.33-4.33-9-4.67-3.67,3-4.33,8-.34,6.67,2,11.67,1.82,2.94,2.33,5,0,48.67,1.67,59,5,15,5,15Z" style="fill: rgb(255, 255, 255); stroke: rgb(38, 50, 56); stroke-linecap: round; stroke-linejoin: round; transform-origin: 98.4592px 209.463px;" id="elxr9it5ca4ai" class="animable"></path><path d="M90.79,161.31s1.76,12.08-.19,14-5.85,0-6.43-.19-2.54-9.94-2-12.09S90.14,161.14,90.79,161.31Z" style="fill: rgb(255, 255, 255); stroke: rgb(38, 50, 56); stroke-linecap: round; stroke-linejoin: round; transform-origin: 86.7979px 168.678px;" id="el5yfl1mgl39t" class="animable"></path><path d="M91,164.62A20.11,20.11,0,0,1,82.41,166" style="fill: none; stroke: rgb(38, 50, 56); stroke-linecap: round; stroke-linejoin: round; transform-origin: 86.705px 165.327px;" id="elg69jn8yu4b" class="animable"></path><path d="M91.38,168.91a32.87,32.87,0,0,1-8.58,1.17" style="fill: none; stroke: rgb(38, 50, 56); stroke-linecap: round; stroke-linejoin: round; transform-origin: 87.09px 169.495px;" id="elkbr1z9n59jl" class="animable"></path><path d="M91.18,172.81s-4.48,1.56-7.4.39" style="fill: none; stroke: rgb(38, 50, 56); stroke-linecap: round; stroke-linejoin: round; transform-origin: 87.48px 173.223px;" id="elgvtfsans7iv" class="animable"></path><path d="M100.78,169.81s.33-6.33,0-8-8.34-6-8.34-6-6,3.33-7.33,4-2,2.33-.67,2.67,5-.34,5-.34l2-.66s-.66,8,3.34,11.33" style="fill: rgb(255, 255, 255); stroke: rgb(38, 50, 56); stroke-linecap: round; stroke-linejoin: round; transform-origin: 92.3217px 164.31px;" id="elc6fdt5wdmhr" class="animable"></path><path d="M191.11,251.48s3-1.67,3.67,1,3,8.66,3,8.66l19.33,10.34-21.67,38H144.11l-7.67-27.67s-22.33,34-30,40.33-12.66,8.34-12.66,8.34-2.34-67,2.66-78.34,12.34-27,13-28,5.67,2.34,5.67,5v5.67s2.67-.33,3.67,1.67a14.11,14.11,0,0,0,2.33,3.33s8.33,5,9.33,5.67,6,2,6,2l25.34-.34s5.33-3,6.33-3h1Z" style="fill: rgb(247, 71, 67); stroke: rgb(38, 50, 56); stroke-linecap: round; stroke-linejoin: round; transform-origin: 155.172px 277.219px;" id="eljvqxr9w46tg" class="animable"></path><path d="M193.4,302.18a32.53,32.53,0,0,0,3,2.42" style="fill: none; stroke: rgb(38, 50, 56); stroke-linecap: round; stroke-linejoin: round; transform-origin: 194.9px 303.39px;" id="elcoyig89nxd6" class="animable"></path><path d="M173.44,268.81s5.8,17.59,16.16,29.49" style="fill: none; stroke: rgb(38, 50, 56); stroke-linecap: round; stroke-linejoin: round; transform-origin: 181.52px 283.555px;" id="el2n699toxpen" class="animable"></path><path d="M144.83,254.07s2.8-2.75,4.47-.14-1.6,3.05-1.6,3.05,3.15,2,1.1,4.28-3.36-.18-3.36-.18-2.14,1.7-4.18-.81c-1.83-2.26.3-3.48.3-3.48s-2.65.1-1.18-2.83S143.48,252.31,144.83,254.07Z" style="fill: rgb(255, 255, 255); transform-origin: 144.855px 257.224px;" id="elvh68b54ebtd" class="animable"></path><path d="M143.57,256.2a1.69,1.69,0,1,1-.12,2.39A1.69,1.69,0,0,1,143.57,256.2Z" style="fill: rgb(247, 71, 67); transform-origin: 144.702px 257.455px;" id="el3shs331zp1" class="animable"></path><path d="M123.5,249.07s2.79-2.75,4.46-.14-1.6,3-1.6,3,3.15,2,1.11,4.28-3.37-.18-3.37-.18-2.13,1.7-4.17-.81c-1.83-2.26.3-3.48.3-3.48s-2.66.1-1.18-2.83S122.15,247.31,123.5,249.07Z" style="fill: rgb(255, 255, 255); transform-origin: 123.518px 252.184px;" id="el9jsz1yqddj4" class="animable"></path><path d="M122.24,251.2a1.69,1.69,0,1,1-.13,2.39A1.68,1.68,0,0,1,122.24,251.2Z" style="fill: rgb(247, 71, 67); transform-origin: 123.364px 252.46px;" id="eldsqe4uzee5j" class="animable"></path><path d="M164.25,271.1s-.17-3.91,2.89-3.4,1.19,3.23,1.19,3.23,3.57-1,3.91,2.05-2.38,2.38-2.38,2.38-.17,2.72-3.4,2.55c-2.9-.15-2.38-2.55-2.38-2.55s-1.7,2-2.9-1S162,270.93,164.25,271.1Z" style="fill: rgb(255, 255, 255); transform-origin: 166.546px 272.786px;" id="elcp5a4cs7t1f" class="animable"></path><path d="M165,273.48a1.69,1.69,0,1,1,1.69,1.69A1.68,1.68,0,0,1,165,273.48Z" style="fill: rgb(247, 71, 67); transform-origin: 166.69px 273.48px;" id="el0la4crc9ocn" class="animable"></path><path d="M122.56,275.77s-.17-3.91,2.89-3.4,1.19,3.23,1.19,3.23,3.57-1,3.91,2-2.38,2.39-2.38,2.39-.17,2.72-3.4,2.55c-2.9-.16-2.38-2.55-2.38-2.55s-1.7,2-2.9-1S120.35,275.6,122.56,275.77Z" style="fill: rgb(255, 255, 255); transform-origin: 124.858px 277.436px;" id="elauzfxeyrtyp" class="animable"></path><path d="M123.3,278.14a1.69,1.69,0,1,1,1.69,1.69A1.69,1.69,0,0,1,123.3,278.14Z" style="fill: rgb(247, 71, 67); transform-origin: 124.99px 278.14px;" id="elkt2vx80hjuc" class="animable"></path><path d="M147.79,284.93s3-2.54,4.47.19-1.82,2.93-1.82,2.93,3,2.19.8,4.34-3.35-.41-3.35-.41-2.25,1.54-4.1-1.12c-1.67-2.38.55-3.44.55-3.44s-2.66-.09-1-2.91S146.57,283.09,147.79,284.93Z" style="fill: rgb(255, 255, 255); transform-origin: 147.716px 288.079px;" id="elffgzhlxkfft" class="animable"></path><path d="M146.38,287a1.69,1.69,0,1,1,2.08,2.66,1.7,1.7,0,0,1-2.37-.29A1.68,1.68,0,0,1,146.38,287Z" style="fill: rgb(247, 71, 67); transform-origin: 147.449px 288.304px;" id="el7fjrfx24zd7" class="animable"></path><path d="M104.66,258.1s3-2.54,4.46.19-1.82,2.93-1.82,2.93,3,2.19.8,4.34-3.34-.41-3.34-.41-2.26,1.54-4.11-1.12c-1.66-2.38.55-3.45.55-3.45s-2.66-.08-1-2.9S103.43,256.25,104.66,258.1Z" style="fill: rgb(255, 255, 255); transform-origin: 104.575px 261.248px;" id="elheugpf0k1xv" class="animable"></path><path d="M103.24,260.14a1.69,1.69,0,1,1-.29,2.38A1.69,1.69,0,0,1,103.24,260.14Z" style="fill: rgb(247, 71, 67); transform-origin: 104.277px 261.474px;" id="elxyi3ikcwtz" class="animable"></path><path d="M102,291.1s3-2.54,4.46.19-1.81,2.93-1.81,2.93,3,2.19.79,4.34-3.34-.41-3.34-.41S99.84,299.69,98,297c-1.66-2.38.55-3.45.55-3.45s-2.66-.08-1-2.9S100.76,289.25,102,291.1Z" style="fill: rgb(255, 255, 255); transform-origin: 101.92px 294.238px;" id="el9wavdk87eq8" class="animable"></path><path d="M100.57,293.14a1.69,1.69,0,1,1-.29,2.38A1.7,1.7,0,0,1,100.57,293.14Z" style="fill: rgb(247, 71, 67); transform-origin: 101.609px 294.474px;" id="elbtpruwkhd8e" class="animable"></path><path d="M168.91,292.77s-.17-3.91,2.9-3.4S173,292.6,173,292.6s3.57-1,3.91,2-2.38,2.39-2.38,2.39-.17,2.72-3.4,2.55c-2.91-.16-2.39-2.55-2.39-2.55s-1.7,2-2.89-1S166.7,292.6,168.91,292.77Z" style="fill: rgb(255, 255, 255); transform-origin: 171.219px 294.436px;" id="elts3jv9fhd9" class="animable"></path><path d="M169.65,295.14a1.69,1.69,0,1,1,1.69,1.69A1.69,1.69,0,0,1,169.65,295.14Z" style="fill: rgb(247, 71, 67); transform-origin: 171.34px 295.14px;" id="el0l2432g1v4c" class="animable"></path><path d="M192.3,291.35s-3.82.86-3.86-2.24,3-1.75,3-1.75-1.64-3.33,1.31-4.21,2.77,1.93,2.77,1.93,2.71-.32,3.11,2.9c.37,2.88-2.09,2.79-2.09,2.79s2.31,1.31-.49,3S192.53,293.56,192.3,291.35Z" style="fill: rgb(255, 255, 255); transform-origin: 193.554px 288.699px;" id="elfnro0qwy91j" class="animable"></path><path d="M194.51,290.21a1.69,1.69,0,1,1,1.36-2A1.69,1.69,0,0,1,194.51,290.21Z" style="fill: rgb(247, 71, 67); transform-origin: 194.214px 288.546px;" id="el7vx0k9is6pw" class="animable"></path><path d="M184.32,268.81s-.17-3.91,2.89-3.4,1.19,3.23,1.19,3.23,3.58-1,3.92,2-2.39,2.38-2.39,2.38-.17,2.73-3.4,2.56c-2.9-.16-2.38-2.56-2.38-2.56s-1.7,2-2.89-1S182.11,268.64,184.32,268.81Z" style="fill: rgb(255, 255, 255); transform-origin: 186.629px 270.476px;" id="el6xdyg6o0gla" class="animable"></path><path d="M185.06,271.18a1.69,1.69,0,1,1,1.69,1.69A1.69,1.69,0,0,1,185.06,271.18Z" style="fill: rgb(247, 71, 67); transform-origin: 186.75px 271.18px;" id="eli4sviyvbqu" class="animable"></path><path d="M204.32,272.14s-.17-3.91,2.89-3.4S208.4,272,208.4,272s3.58-1,3.92,2-2.39,2.39-2.39,2.39-.17,2.72-3.4,2.55c-2.9-.15-2.38-2.55-2.38-2.55s-1.7,2-2.89-1S202.11,272,204.32,272.14Z" style="fill: rgb(255, 255, 255); transform-origin: 206.629px 273.821px;" id="elayw17yzgcb9" class="animable"></path><path d="M205.06,274.51a1.69,1.69,0,1,1,1.69,1.69A1.69,1.69,0,0,1,205.06,274.51Z" style="fill: rgb(247, 71, 67); transform-origin: 206.75px 274.51px;" id="el790yciv6ku9" class="animable"></path><path d="M115.11,234.81s-7.75,7.13-7.81,26.41" style="fill: none; stroke: rgb(38, 50, 56); stroke-linecap: round; stroke-linejoin: round; transform-origin: 111.205px 248.015px;" id="elmb4sc8bo6r" class="animable"></path><path d="M121.11,239.81a54.63,54.63,0,0,0-2.31,26.05" style="fill: none; stroke: rgb(38, 50, 56); stroke-linecap: round; stroke-linejoin: round; transform-origin: 119.635px 252.835px;" id="elh8zz3mhi5c" class="animable"></path><path d="M109.72,276.88c.28,1.05.61,2.13,1,3.23" style="fill: none; stroke: rgb(38, 50, 56); stroke-linecap: round; stroke-linejoin: round; transform-origin: 110.22px 278.495px;" id="elsk7hlijnqi" class="animable"></path><path d="M108.1,265.56a43,43,0,0,0,.77,7.53" style="fill: none; stroke: rgb(38, 50, 56); stroke-linecap: round; stroke-linejoin: round; transform-origin: 108.485px 269.325px;" id="elwspg53zsqk9" class="animable"></path><line x1="136.44" y1="281.81" x2="138.84" y2="261.62" style="fill: none; stroke: rgb(38, 50, 56); stroke-linecap: round; stroke-linejoin: round; transform-origin: 137.64px 271.715px;" id="elhq38dw8ka2p" class="animable"></line><path d="M195.78,243.81s-3.67,7.67-5.67,12.67-16.67,12.33-16.67,12.33l-6.66-17.33,2.66-14.67S181.11,245.48,195.78,243.81Z" style="fill: rgb(255, 255, 255); stroke: rgb(38, 50, 56); stroke-linecap: round; stroke-linejoin: round; transform-origin: 181.28px 252.81px;" id="el42bgsc5r71v" class="animable"></path><path d="M169.09,238.73l.35-1.92s11.67,8.67,26.34,7c0,0-3.67,7.67-5.67,12.67a7.05,7.05,0,0,1-1.24,1.9,19.3,19.3,0,0,1-6.24-2c-9.59-5-10.3-12.44-10.3-12.44Z" style="fill: rgb(38, 50, 56); stroke: rgb(38, 50, 56); stroke-linecap: round; stroke-linejoin: round; transform-origin: 182.435px 247.595px;" id="eleokw1rji9iw" class="animable"></path><path d="M180.81,175.08s18.05-3.91,30.66,6.74,13.48,20.22,10.65,30-12.83,15.22-15,16.09-3.26,0-3.26,0,.43-10.66-13.26-16.31-19.57-1.3-20.87.22-2.83,7.61-2.83,7.61a30.13,30.13,0,0,1-6.52-25.22C163.42,179.22,180.81,175.08,180.81,175.08Z" style="fill: rgb(38, 50, 56); stroke: rgb(38, 50, 56); stroke-linecap: round; stroke-linejoin: round; transform-origin: 191.634px 201.338px;" id="el53jxd9mbtys" class="animable"></path><path d="M207.53,226.83s3.53-3.23,5.63-.51-.41,4.81-3.14,6.69a23.39,23.39,0,0,1-7.26,2.77Z" style="fill: rgb(255, 255, 255); stroke: rgb(38, 50, 56); stroke-linecap: round; stroke-linejoin: round; transform-origin: 208.35px 230.505px;" id="el3aik3wzpcrm" class="animable"></path><path d="M168,218.39s-1.83-4.42-4.89-2.85-1.67,4.53,0,7.4a23.4,23.4,0,0,0,5.4,5.58Z" style="fill: rgb(255, 255, 255); stroke: rgb(38, 50, 56); stroke-linecap: round; stroke-linejoin: round; transform-origin: 164.905px 221.861px;" id="elm2xgi90jqh" class="animable"></path><path d="M210.38,222.7s-8.69,17.83-13,21.74-5.44,4.35-5.44,4.35-8,3.91-13.91,1.3-9.35-10.43-9.79-13-1.95-23.48-.65-27,9.78-10,16.52-10S207.77,217.7,210.38,222.7Z" style="fill: rgb(255, 255, 255); stroke: rgb(38, 50, 56); stroke-linecap: round; stroke-linejoin: round; transform-origin: 188.727px 225.539px;" id="elgvz6abnj6ya" class="animable"></path><polyline points="181.9 200.3 179.29 186.61 177.77 186.61 179.94 201.39" style="fill: rgb(255, 255, 255); transform-origin: 179.835px 194px;" id="elvz49fe19ot" class="animable"></polyline><path d="M201.47,224.87s-2.83-3.69-8.92-1.3" style="fill: none; stroke: rgb(38, 50, 56); stroke-linecap: round; stroke-linejoin: round; transform-origin: 197.01px 223.817px;" id="elymelsifopq" class="animable"></path><path d="M181,221.18s-1.09-3.92-8-3.48" style="fill: none; stroke: rgb(38, 50, 56); stroke-linecap: round; stroke-linejoin: round; transform-origin: 177px 219.423px;" id="elptnqfpyh5zq" class="animable"></path><path d="M194.73,215.09s7.61-1.09,8.69,6.09" style="fill: none; stroke: rgb(38, 50, 56); stroke-linecap: round; stroke-linejoin: round; transform-origin: 199.075px 218.105px;" id="elolg8h4s5pua" class="animable"></path><path d="M183.42,212.7s-3-3.48-10.22-.44" style="fill: none; stroke: rgb(38, 50, 56); stroke-linecap: round; stroke-linejoin: round; transform-origin: 178.31px 211.857px;" id="eltne3lg2zow" class="animable"></path><path d="M181.25,231s1.74,2.39,4.13,2.61a3.69,3.69,0,0,0,3.48-2" style="fill: none; stroke: rgb(38, 50, 56); stroke-linecap: round; stroke-linejoin: round; transform-origin: 185.055px 232.308px;" id="eldnlhsy85e2e" class="animable"></path><path d="M189.08,238.57s-6.53,3.26-10.44-2.39" style="fill: none; stroke: rgb(38, 50, 56); stroke-linecap: round; stroke-linejoin: round; transform-origin: 183.86px 237.843px;" id="ellun0onp8l1n" class="animable"></path><path d="M105.44,479.81s7.67-90.33,14.34-111.33,23.33-35.67,23.33-35.67h53.67s12.33,11.67,20.33,34.67,14.67,112.33,14.67,112.33" style="fill: rgb(247, 71, 67); stroke: rgb(38, 50, 56); stroke-linecap: round; stroke-linejoin: round; transform-origin: 168.61px 406.31px;" id="el25626va6ncg" class="animable"></path><path d="M188.56,346.1s-.17-3.91,2.89-3.4,1.19,3.23,1.19,3.23,3.57-1,3.91,2.05-2.38,2.38-2.38,2.38-.17,2.72-3.4,2.55c-2.9-.15-2.38-2.55-2.38-2.55s-1.7,2-2.9-1S186.35,345.93,188.56,346.1Z" style="fill: rgb(255, 255, 255); transform-origin: 190.858px 347.786px;" id="el0dtfijwrouiu" class="animable"></path><path d="M189.3,348.48a1.69,1.69,0,1,1,1.69,1.69A1.68,1.68,0,0,1,189.3,348.48Z" style="fill: rgb(247, 71, 67); transform-origin: 190.99px 348.48px;" id="el7w2ioat224n" class="animable"></path><path d="M188.56,368.77s-.17-3.91,2.89-3.4,1.19,3.23,1.19,3.23,3.57-1,3.91,2-2.38,2.39-2.38,2.39-.17,2.72-3.4,2.55c-2.9-.16-2.38-2.55-2.38-2.55s-1.7,2-2.9-1S186.35,368.6,188.56,368.77Z" style="fill: rgb(255, 255, 255); transform-origin: 190.858px 370.436px;" id="el0hd8mr7lici" class="animable"></path><path d="M189.3,371.14a1.69,1.69,0,1,1,1.69,1.69A1.69,1.69,0,0,1,189.3,371.14Z" style="fill: rgb(247, 71, 67); transform-origin: 190.99px 371.14px;" id="els56es4hvfd" class="animable"></path><path d="M147.89,346.1s-.17-3.91,2.89-3.4,1.19,3.23,1.19,3.23,3.58-1,3.92,2.05-2.38,2.38-2.38,2.38-.17,2.72-3.41,2.55c-2.9-.15-2.38-2.55-2.38-2.55s-1.7,2-2.89-1S145.68,345.93,147.89,346.1Z" style="fill: rgb(255, 255, 255); transform-origin: 150.199px 347.786px;" id="ele0j4f3ou5r9" class="animable"></path><path d="M148.63,348.48a1.69,1.69,0,1,1,1.69,1.69A1.69,1.69,0,0,1,148.63,348.48Z" style="fill: rgb(247, 71, 67); transform-origin: 150.32px 348.48px;" id="eli2pe6rui06" class="animable"></path><path d="M147.58,377.1s-.17-3.91,2.89-3.4,1.19,3.23,1.19,3.23,3.58-1,3.92,2.05-2.39,2.38-2.39,2.38-.17,2.72-3.4,2.55c-2.9-.15-2.38-2.55-2.38-2.55s-1.7,2-2.89-1S145.37,376.93,147.58,377.1Z" style="fill: rgb(255, 255, 255); transform-origin: 149.889px 378.786px;" id="eljtrk7vm1fzp" class="animable"></path><path d="M148.32,379.48a1.69,1.69,0,1,1,1.69,1.69A1.69,1.69,0,0,1,148.32,379.48Z" style="fill: rgb(247, 71, 67); transform-origin: 150.01px 379.48px;" id="elw8nmqvot1f" class="animable"></path><path d="M191.7,405.94s-.17-3.92,2.89-3.4,1.19,3.23,1.19,3.23,3.58-1,3.92,2-2.38,2.38-2.38,2.38-.17,2.72-3.41,2.55c-2.9-.15-2.38-2.55-2.38-2.55s-1.7,2-2.89-1S189.49,405.77,191.7,405.94Z" style="fill: rgb(255, 255, 255); transform-origin: 194.009px 407.6px;" id="el4uvlhd8lgt6" class="animable"></path><path d="M192.44,408.31a1.69,1.69,0,1,1,1.69,1.69A1.69,1.69,0,0,1,192.44,408.31Z" style="fill: rgb(247, 71, 67); transform-origin: 194.13px 408.31px;" id="elqfjzm1oay0n" class="animable"></path><path d="M191.7,444.48s-.17-3.91,2.89-3.4,1.19,3.23,1.19,3.23,3.58-1,3.92,2-2.38,2.38-2.38,2.38-.17,2.73-3.41,2.56c-2.9-.16-2.38-2.56-2.38-2.56s-1.7,2-2.89-1S189.49,444.31,191.7,444.48Z" style="fill: rgb(255, 255, 255); transform-origin: 194.009px 446.146px;" id="eluc44mx0otgn" class="animable"></path><path d="M192.44,446.85a1.69,1.69,0,1,1,1.69,1.69A1.69,1.69,0,0,1,192.44,446.85Z" style="fill: rgb(247, 71, 67); transform-origin: 194.13px 446.85px;" id="ellquaw7t01ls" class="animable"></path><path d="M147.58,410.77s-.17-3.91,2.89-3.4,1.19,3.23,1.19,3.23,3.58-1,3.92,2-2.39,2.39-2.39,2.39-.17,2.72-3.4,2.55c-2.9-.16-2.38-2.55-2.38-2.55s-1.7,2-2.89-1S145.37,410.6,147.58,410.77Z" style="fill: rgb(255, 255, 255); transform-origin: 149.889px 412.436px;" id="elnxhtnhlmvp" class="animable"></path><path d="M148.32,413.14a1.69,1.69,0,1,1,1.69,1.69A1.69,1.69,0,0,1,148.32,413.14Z" style="fill: rgb(247, 71, 67); transform-origin: 150.01px 413.14px;" id="elmhiofm53iqo" class="animable"></path><path d="M147.58,447.94s-.17-3.92,2.89-3.4,1.19,3.23,1.19,3.23,3.58-1,3.92,2-2.39,2.38-2.39,2.38-.17,2.72-3.4,2.55c-2.9-.15-2.38-2.55-2.38-2.55s-1.7,2-2.89-1S145.37,447.77,147.58,447.94Z" style="fill: rgb(255, 255, 255); transform-origin: 149.889px 449.6px;" id="el13zvawq842ze" class="animable"></path><path d="M148.32,450.31A1.69,1.69,0,1,1,150,452,1.69,1.69,0,0,1,148.32,450.31Z" style="fill: rgb(247, 71, 67); transform-origin: 150.01px 450.31px;" id="eleo7a2qfh4c5" class="animable"></path><path d="M168.89,356.08s-.17-3.91,2.89-3.4,1.19,3.23,1.19,3.23,3.58-1,3.92,2-2.38,2.39-2.38,2.39-.17,2.72-3.41,2.55c-2.9-.16-2.38-2.55-2.38-2.55s-1.7,2-2.89-1S166.68,355.91,168.89,356.08Z" style="fill: rgb(255, 255, 255); transform-origin: 171.199px 357.746px;" id="eltnb9gwfwqi" class="animable"></path><path d="M169.63,358.45a1.69,1.69,0,1,1,1.69,1.69A1.69,1.69,0,0,1,169.63,358.45Z" style="fill: rgb(247, 71, 67); transform-origin: 171.32px 358.45px;" id="elf4g5760ud7v" class="animable"></path><path d="M205.32,386.31s-.17-3.91,2.89-3.4,1.19,3.23,1.19,3.23,3.58-1,3.92,2-2.39,2.38-2.39,2.38-.17,2.73-3.4,2.56c-2.9-.16-2.38-2.56-2.38-2.56s-1.7,2-2.89-1S203.11,386.14,205.32,386.31Z" style="fill: rgb(255, 255, 255); transform-origin: 207.629px 387.976px;" id="el5x6uc9zq96n" class="animable"></path><path d="M206.06,388.68a1.69,1.69,0,1,1,1.69,1.69A1.69,1.69,0,0,1,206.06,388.68Z" style="fill: rgb(247, 71, 67); transform-origin: 207.75px 388.68px;" id="eldw1xrqjmsk6" class="animable"></path><path d="M205.32,459.5s-.17-3.91,2.89-3.4,1.19,3.23,1.19,3.23,3.58-1,3.92,2.05-2.39,2.38-2.39,2.38-.17,2.72-3.4,2.55c-2.9-.15-2.38-2.55-2.38-2.55s-1.7,2-2.89-1S203.11,459.33,205.32,459.5Z" style="fill: rgb(255, 255, 255); transform-origin: 207.629px 461.186px;" id="el2galqdksd3v" class="animable"></path><path d="M206.06,461.87a1.69,1.69,0,1,1,1.69,1.69A1.69,1.69,0,0,1,206.06,461.87Z" style="fill: rgb(247, 71, 67); transform-origin: 207.75px 461.87px;" id="elk32bx78hmt" class="animable"></path><path d="M205.32,421.75s-.17-3.92,2.89-3.4,1.19,3.23,1.19,3.23,3.58-1,3.92,2-2.39,2.38-2.39,2.38-.17,2.72-3.4,2.55c-2.9-.15-2.38-2.55-2.38-2.55s-1.7,2-2.89-1S203.11,421.58,205.32,421.75Z" style="fill: rgb(255, 255, 255); transform-origin: 207.629px 423.41px;" id="elu8nysgbz70q" class="animable"></path><path d="M206.06,424.12a1.69,1.69,0,1,1,1.69,1.69A1.69,1.69,0,0,1,206.06,424.12Z" style="fill: rgb(247, 71, 67); transform-origin: 207.75px 424.12px;" id="el3di5gh1mzhh" class="animable"></path><path d="M168.89,388.46s-.17-3.91,2.89-3.4,1.19,3.23,1.19,3.23,3.58-1,3.92,2-2.38,2.38-2.38,2.38-.17,2.73-3.41,2.56c-2.9-.16-2.38-2.56-2.38-2.56s-1.7,2.05-2.89-1S166.68,388.29,168.89,388.46Z" style="fill: rgb(255, 255, 255); transform-origin: 171.199px 390.126px;" id="elriiuhi5pxpn" class="animable"></path><path d="M169.63,390.83a1.69,1.69,0,1,1,1.69,1.69A1.69,1.69,0,0,1,169.63,390.83Z" style="fill: rgb(247, 71, 67); transform-origin: 171.32px 390.83px;" id="eltxlmrsei9e" class="animable"></path><path d="M168.89,463.25s-.17-3.92,2.89-3.4,1.19,3.23,1.19,3.23,3.58-1,3.92,2-2.38,2.38-2.38,2.38-.17,2.72-3.41,2.55c-2.9-.15-2.38-2.55-2.38-2.55s-1.7,2-2.89-1S166.68,463.08,168.89,463.25Z" style="fill: rgb(255, 255, 255); transform-origin: 171.199px 464.91px;" id="elzr8vl4uxqte" class="animable"></path><path d="M169.63,465.62a1.69,1.69,0,1,1,1.69,1.69A1.69,1.69,0,0,1,169.63,465.62Z" style="fill: rgb(247, 71, 67); transform-origin: 171.32px 465.62px;" id="elmvmvmylgnc" class="animable"></path><path d="M168.89,427.94s-.17-3.92,2.89-3.4,1.19,3.23,1.19,3.23,3.58-1,3.92,2-2.38,2.38-2.38,2.38-.17,2.72-3.41,2.55c-2.9-.15-2.38-2.55-2.38-2.55s-1.7,2-2.89-1S166.68,427.77,168.89,427.94Z" style="fill: rgb(255, 255, 255); transform-origin: 171.199px 429.6px;" id="eln1shj1cdjd" class="animable"></path><path d="M169.63,430.31a1.69,1.69,0,1,1,1.69,1.69A1.69,1.69,0,0,1,169.63,430.31Z" style="fill: rgb(247, 71, 67); transform-origin: 171.32px 430.31px;" id="elsxq0h41k5k" class="animable"></path><path d="M217.58,438.44s-.17-3.92,2.89-3.4,1.19,3.23,1.19,3.23,3.58-1,3.92,2-2.39,2.38-2.39,2.38-.17,2.72-3.4,2.55c-2.9-.15-2.38-2.55-2.38-2.55s-1.7,2-2.89-1S215.37,438.27,217.58,438.44Z" style="fill: rgb(255, 255, 255); transform-origin: 219.889px 440.1px;" id="el9aj7fjgpv0v" class="animable"></path><path d="M218.32,440.81A1.69,1.69,0,1,1,220,442.5,1.69,1.69,0,0,1,218.32,440.81Z" style="fill: rgb(247, 71, 67); transform-origin: 220.01px 440.81px;" id="elb2egpfc2gi" class="animable"></path><path d="M130.16,358.56s-.17-3.92,2.89-3.41,1.19,3.24,1.19,3.24,3.57-1,3.91,2-2.38,2.38-2.38,2.38-.17,2.72-3.4,2.55c-2.9-.15-2.38-2.55-2.38-2.55s-1.71,2-2.9-1S127.94,358.39,130.16,358.56Z" style="fill: rgb(255, 255, 255); transform-origin: 132.459px 360.216px;" id="elna1bbauy1p" class="animable"></path><path d="M130.9,360.93a1.69,1.69,0,1,1,1.69,1.69A1.68,1.68,0,0,1,130.9,360.93Z" style="fill: rgb(247, 71, 67); transform-origin: 132.59px 360.93px;" id="elkpi8mekz98f" class="animable"></path><path d="M123.89,395.42s-.17-3.92,2.89-3.41,1.19,3.23,1.19,3.23,3.58-1,3.92,2.05-2.38,2.38-2.38,2.38-.17,2.72-3.41,2.55c-2.9-.15-2.38-2.55-2.38-2.55s-1.7,2-2.89-1S121.68,395.24,123.89,395.42Z" style="fill: rgb(255, 255, 255); transform-origin: 126.199px 397.096px;" id="eluhb9rcj5dce" class="animable"></path><path d="M124.63,397.79a1.69,1.69,0,1,1,1.69,1.69A1.69,1.69,0,0,1,124.63,397.79Z" style="fill: rgb(247, 71, 67); transform-origin: 126.32px 397.79px;" id="el2c1nbmy4kr9" class="animable"></path><path d="M123.89,462.63s-.17-3.92,2.89-3.4,1.19,3.23,1.19,3.23,3.58-1,3.92,2-2.38,2.38-2.38,2.38-.17,2.72-3.41,2.55c-2.9-.15-2.38-2.55-2.38-2.55s-1.7,2-2.89-1S121.68,462.46,123.89,462.63Z" style="fill: rgb(255, 255, 255); transform-origin: 126.199px 464.29px;" id="elvl855bl85m" class="animable"></path><path d="M124.63,465a1.69,1.69,0,1,1,1.69,1.69A1.69,1.69,0,0,1,124.63,465Z" style="fill: rgb(247, 71, 67); transform-origin: 126.32px 465px;" id="el0jd1oybsxf" class="animable"></path><path d="M123.89,424.94s-.17-3.92,2.89-3.4,1.19,3.23,1.19,3.23,3.58-1,3.92,2-2.38,2.38-2.38,2.38-.17,2.72-3.41,2.55c-2.9-.15-2.38-2.55-2.38-2.55s-1.7,2-2.89-1S121.68,424.77,123.89,424.94Z" style="fill: rgb(255, 255, 255); transform-origin: 126.199px 426.6px;" id="elzxlhb5aivyb" class="animable"></path><path d="M124.63,427.31a1.69,1.69,0,1,1,1.69,1.69A1.69,1.69,0,0,1,124.63,427.31Z" style="fill: rgb(247, 71, 67); transform-origin: 126.32px 427.31px;" id="elh1nzpudgwf" class="animable"></path><g id="elych6f95mft"><rect x="143.11" y="306.48" width="53.67" height="26.33" style="fill: rgb(38, 50, 56); stroke: rgb(38, 50, 56); stroke-linecap: round; stroke-linejoin: round; transform-origin: 169.945px 319.645px; transform: rotate(180deg);" class="animable"></rect></g><path d="M229.44,374.14l1.67,26.34s10.67,10.33,10.67,13.66.33,10.34-2,11.34-3.34.33-3.34.33l1-4.67-2.66-6.33-4.67-3.33s3.33,6.66,2.67,10-2.34,2.33-2.67,0-1-2-3-4.34-4.67-7.33-5-10.66-.33-9-.33-9l-8.34-19.34Z" style="fill: rgb(255, 255, 255); stroke: rgb(38, 50, 56); stroke-linecap: round; stroke-linejoin: round; transform-origin: 227.618px 400.085px;" id="elhj5hzm4mz8q" class="animable"></path><polygon points="217.11 271.48 242.78 378.14 207.11 385.81 203.78 294.48 217.11 271.48" style="fill: rgb(247, 71, 67); stroke: rgb(38, 50, 56); stroke-linecap: round; stroke-linejoin: round; transform-origin: 223.28px 328.645px;" id="elr1fy5zfty9" class="animable"></polygon><path d="M209.52,301.67c1.19,3.06,2.89,1,2.89,1s-.52,2.4,2.38,2.55c3.23.17,3.4-2.55,3.4-2.55s2.73.68,2.39-2.38-3.92-2-3.92-2,1.88-2.72-1.19-3.23-2.89,3.4-2.89,3.4C210.37,298.27,208.33,298.61,209.52,301.67Zm3.8-.86A1.69,1.69,0,1,1,215,302.5,1.69,1.69,0,0,1,213.32,300.81Z" style="fill: rgb(255, 255, 255); transform-origin: 214.889px 300.121px;" id="elu2uc3qoezte" class="animable"></path><path d="M215.52,323c1.19,3.07,2.89,1,2.89,1s-.52,2.39,2.38,2.55c3.23.17,3.4-2.55,3.4-2.55s2.73.68,2.39-2.39-3.92-2-3.92-2,1.88-2.72-1.19-3.23-2.89,3.4-2.89,3.4C216.37,319.6,214.33,319.94,215.52,323Zm3.8-.86a1.69,1.69,0,1,1,1.69,1.69A1.69,1.69,0,0,1,219.32,322.14Z" style="fill: rgb(255, 255, 255); transform-origin: 220.889px 321.446px;" id="elah01y5hc07o" class="animable"></path><path d="M206.85,341.34c1.19,3.06,2.89,1,2.89,1s-.52,2.4,2.39,2.55c3.23.17,3.4-2.55,3.4-2.55s2.72.68,2.38-2.38-3.91-2.05-3.91-2.05,1.87-2.72-1.19-3.23-2.9,3.4-2.9,3.4C207.7,337.93,205.66,338.27,206.85,341.34Zm3.8-.86a1.69,1.69,0,1,1,1.69,1.69A1.69,1.69,0,0,1,210.65,340.48Z" style="fill: rgb(255, 255, 255); transform-origin: 212.219px 339.766px;" id="elmq2s96xvg7m" class="animable"></path><path d="M222.16,351.36c1.19,3.06,2.89,1,2.89,1s-.52,2.4,2.39,2.55c3.23.17,3.4-2.55,3.4-2.55s2.72.68,2.38-2.38-3.91-2-3.91-2,1.87-2.72-1.19-3.23-2.9,3.4-2.9,3.4C223,348,221,348.3,222.16,351.36Zm3.8-.86a1.69,1.69,0,1,1,1.69,1.69A1.69,1.69,0,0,1,226,350.5Z" style="fill: rgb(255, 255, 255); transform-origin: 227.535px 349.811px;" id="elp5k3cl1wvgd" class="animable"></path><path d="M207.83,367.36c1.19,3.06,2.89,1,2.89,1s-.52,2.4,2.38,2.55c3.24.17,3.41-2.55,3.41-2.55s2.72.68,2.38-2.38-3.92-2-3.92-2,1.88-2.72-1.19-3.23-2.89,3.4-2.89,3.4C208.68,364,206.64,364.3,207.83,367.36Zm3.8-.86a1.69,1.69,0,1,1,1.69,1.69A1.69,1.69,0,0,1,211.63,366.5Z" style="fill: rgb(255, 255, 255); transform-origin: 213.199px 365.811px;" id="ell5gyrnifn1r" class="animable"></path><path d="M225.83,372.36c1.19,3.06,2.89,1,2.89,1s-.52,2.4,2.38,2.55c3.24.17,3.41-2.55,3.41-2.55s2.72.68,2.38-2.38-3.92-2-3.92-2,1.88-2.72-1.19-3.23-2.89,3.4-2.89,3.4C226.68,369,224.64,369.3,225.83,372.36Zm3.8-.86a1.69,1.69,0,1,1,1.69,1.69A1.69,1.69,0,0,1,229.63,371.5Z" style="fill: rgb(255, 255, 255); transform-origin: 231.199px 370.811px;" id="el7608cpdmsye" class="animable"></path></g><g id="freepik--character-2--inject-38" class="animable" style="transform-origin: 237.891px 384.645px;"><path d="M281.65,480.23s6.06-39.08-16.06-78.77H212.88s-24.24,35.75-19.69,78.77" style="fill: rgb(247, 71, 67); stroke: rgb(38, 50, 56); stroke-linecap: round; stroke-linejoin: round; transform-origin: 237.515px 440.845px;" id="elr35wi3vveug" class="animable"></path><polygon points="251.78 409.27 251.8 410.77 252.53 462.26 257.41 461.13 255.16 408.14 251.78 409.27" style="fill: rgb(38, 50, 56); stroke: rgb(38, 50, 56); stroke-linecap: round; stroke-linejoin: round; transform-origin: 254.595px 435.2px;" id="elsoy5c7bsjks" class="animable"></polygon><path d="M213.82,405.89s5.64,6,24.43,6.76a40.54,40.54,0,0,0,28.93-10.14l-2.25-4.89-53.74.75Z" style="fill: rgb(38, 50, 56); stroke: rgb(38, 50, 56); stroke-linecap: round; stroke-linejoin: round; transform-origin: 239.185px 405.161px;" id="elg62e4dw0c8a" class="animable"></path><path d="M222.47,366.17s-6.56,4.47-10.8,16.05,1.21,19.2,1.21,19.2,8.78,7.31,28.17,7.31a43.69,43.69,0,0,0,24.54-7.31,34.27,34.27,0,0,0,4.85-4.88,38.67,38.67,0,0,0-4.55-20.11C260.44,366.68,247.59,355.69,222.47,366.17Z" style="fill: rgb(255, 255, 255); stroke: rgb(38, 50, 56); stroke-linecap: round; stroke-linejoin: round; transform-origin: 240.269px 385.323px;" id="el87qgzkv5do7" class="animable"></path><path d="M216.3,406.12,214.43,403c14.13-8.43,32.82-40,33-40.35l3.75,1.09C250.41,365.07,231.21,397.22,216.3,406.12Z" style="fill: rgb(38, 50, 56); transform-origin: 232.805px 384.385px;" id="elu6g9tkbl1ur" class="animable"></path><polygon points="229.24 356.32 229.24 366.62 237.72 379.95 247.41 366.92 248.32 356.93 229.24 356.32" style="fill: rgb(255, 255, 255); stroke: rgb(38, 50, 56); stroke-linecap: round; stroke-linejoin: round; transform-origin: 238.78px 368.135px;" id="elgrz6klv8xar" class="animable"></polygon><path d="M229.24,363.9a49.85,49.85,0,0,0,13.95-3.58l-3.82-3.68-10.13-.32Z" style="fill: rgb(38, 50, 56); stroke: rgb(38, 50, 56); stroke-linecap: round; stroke-linejoin: round; transform-origin: 236.215px 360.11px;" id="elcqbbizr7yk" class="animable"></path><path d="M216.21,328.45s-6.66-4.55-7,2.42,8.18,10.6,8.18,10.6Z" style="fill: rgb(255, 255, 255); stroke: rgb(38, 50, 56); stroke-linecap: round; stroke-linejoin: round; transform-origin: 213.295px 334.231px;" id="elnaaoo2qy5f" class="animable"></path><path d="M262,328.45s6.66-4.55,7,2.42-8.18,10.6-8.18,10.6Z" style="fill: rgb(255, 255, 255); stroke: rgb(38, 50, 56); stroke-linecap: round; stroke-linejoin: round; transform-origin: 264.915px 334.231px;" id="el4kazqsnteh7" class="animable"></path><circle cx="208.18" cy="303.45" r="14.39" style="fill: rgb(38, 50, 56); stroke: rgb(38, 50, 56); stroke-linecap: round; stroke-linejoin: round; transform-origin: 208.18px 303.45px;" id="ell4dvhq6q6z" class="animable"></circle><circle cx="268.77" cy="303.45" r="14.39" style="fill: rgb(38, 50, 56); stroke: rgb(38, 50, 56); stroke-linecap: round; stroke-linejoin: round; transform-origin: 268.77px 303.45px;" id="elvcp8xptvgdm" class="animable"></circle><path d="M215,322.39s.91,21.51,4.54,27.57a25,25,0,0,0,20.6,11.51c10.91.3,18.18-10.6,20.3-15.45s2.42-20.3,2.42-23.63-8.48-18.18-19.08-20S215.3,305.12,215,322.39Z" style="fill: rgb(255, 255, 255); stroke: rgb(38, 50, 56); stroke-linecap: round; stroke-linejoin: round; transform-origin: 238.93px 331.746px;" id="elpufb10hycc" class="animable"></path><path d="M223.78,335.11s4.85-2.42,8.79,1.21" style="fill: none; stroke: rgb(38, 50, 56); stroke-linecap: round; stroke-linejoin: round; transform-origin: 228.175px 335.32px;" id="elz26thoa7exj" class="animable"></path><path d="M245.29,336.32s4.85-4.24,8.18-.6" style="fill: none; stroke: rgb(38, 50, 56); stroke-linecap: round; stroke-linejoin: round; transform-origin: 249.38px 335.282px;" id="elkwirco5jnob" class="animable"></path><line x1="236.51" y1="341.78" x2="242.26" y2="341.78" style="fill: none; stroke: rgb(38, 50, 56); stroke-linecap: round; stroke-linejoin: round; transform-origin: 239.385px 341.78px;" id="elr8esffzmfjs" class="animable"></line><path d="M229.84,346.32s2.73,4.85,10.3,3.94,9.39-4.85,9.39-4.85" style="fill: none; stroke: rgb(38, 50, 56); stroke-linecap: round; stroke-linejoin: round; transform-origin: 239.685px 347.892px;" id="elqhiqyy2p4nl" class="animable"></path><path d="M221.36,330.57s4.24-6.36,12.12-2.73" style="fill: none; stroke: rgb(38, 50, 56); stroke-linecap: round; stroke-linejoin: round; transform-origin: 227.42px 328.645px;" id="el1v80qzeecxph" class="animable"></path><path d="M256.81,330.57s-4.25-6.36-12.12-2.73" style="fill: none; stroke: rgb(38, 50, 56); stroke-linecap: round; stroke-linejoin: round; transform-origin: 250.75px 328.645px;" id="el01yf74obhhw3" class="animable"></path><path d="M215.91,307.54s-3,5.15-3,10.3a40.07,40.07,0,0,1-.61,7.88l21.81.91,1.82-4.24,1.82,4.85h13.33l1.82-6.06,2.42,5.45,9.7-1.51a35.27,35.27,0,0,0-7.88-20.3C249.23,295.12,228.93,293,215.91,307.54Z" style="fill: rgb(38, 50, 56); stroke: rgb(38, 50, 56); stroke-linecap: round; stroke-linejoin: round; transform-origin: 238.66px 312.164px;" id="el5rsld7oqf2" class="animable"></path><path d="M224.44,380.56S219,389.34,218,403s6.11,19.7,11.9,21.21a40.8,40.8,0,0,0,9.33,1.52v32.11s-21.23.3-34.42-17.88-10-65.43,23.16-76" style="fill: rgb(255, 255, 255); stroke: rgb(38, 50, 56); stroke-linecap: round; stroke-linejoin: round; transform-origin: 218.396px 410.9px;" id="el6dqgm2y1k03" class="animable"></path><path d="M253.87,380.56s5.47,8.78,6.44,22.41-6.11,19.7-11.9,21.21a40.88,40.88,0,0,1-9.33,1.52v32.11s21.23.3,34.42-17.88,11.77-65.35-21.36-76" style="fill: rgb(255, 255, 255); stroke: rgb(38, 50, 56); stroke-linecap: round; stroke-linejoin: round; transform-origin: 260.177px 410.87px;" id="el2skftkdravb" class="animable"></path></g><defs>     <filter id="active" height="200%">         <feMorphology in="SourceAlpha" result="DILATED" operator="dilate" radius="2"></feMorphology>                <feFlood flood-color="#32DFEC" flood-opacity="1" result="PINK"></feFlood>        <feComposite in="PINK" in2="DILATED" operator="in" result="OUTLINE"></feComposite>        <feMerge>            <feMergeNode in="OUTLINE"></feMergeNode>            <feMergeNode in="SourceGraphic"></feMergeNode>        </feMerge>    </filter>    <filter id="hover" height="200%">        <feMorphology in="SourceAlpha" result="DILATED" operator="dilate" radius="2"></feMorphology>                <feFlood flood-color="#ff0000" flood-opacity="0.5" result="PINK"></feFlood>        <feComposite in="PINK" in2="DILATED" operator="in" result="OUTLINE"></feComposite>        <feMerge>            <feMergeNode in="OUTLINE"></feMergeNode>            <feMergeNode in="SourceGraphic"></feMergeNode>        </feMerge>            <feColorMatrix type="matrix" values="0   0   0   0   0                0   1   0   0   0                0   0   0   0   0                0   0   0   1   0 "></feColorMatrix>    </filter></defs></svg>